<?xml version="1.0" encoding="utf-8"?>
<!-- Generator: Adobe Illustrator 19.1.0, SVG Export Plug-In . SVG Version: 6.00 Build 0)  -->
<svg version="1.1" id="Ebene_1" xmlns="http://www.w3.org/2000/svg" xmlns:xlink="http://www.w3.org/1999/xlink" x="0px" y="0px"
	 viewBox="0 0 75.6 145.1" style="enable-background:new 0 0 75.6 145.1;" xml:space="preserve">
<style type="text/css">
	.st0{fill-rule:evenodd;clip-rule:evenodd;fill:#121212;}
	.st1{fill-rule:evenodd;clip-rule:evenodd;fill:#FFFFFF;}
	.st2{fill:#FFFFFF;}
</style>
<path class="st0" d="M75.3,314.9c15.6-0.1,31.3-0.2,46.9-0.2c3.9,0,8.9-1,8.8,5.4c0,5.6-4.4,5.1-8.1,5.1
	c-31.6,0.2-63.3,0.3-94.9,0.4c-3.9,0-8.1-0.1-8-5.4c0.1-5.3,4.5-5.1,8.3-5.1C44,315,59.7,315,75.3,314.9z"/>
<path class="st0" d="M80.4,320.4c0,15.6-0.1,31.3-0.2,46.9c0,3.9,0.9,8.9-5.4,8.8c-5.6-0.1-5-4.5-5-8.2c0.1-31.6,0.2-63.3,0.3-94.9
	c0-3.9,0.2-8.1,5.5-7.9c5.3,0.2,5,4.6,5,8.4C80.5,289.1,80.5,304.7,80.4,320.4z"/>
<path class="st0" d="M388.2,310.5c11.1,11,22.2,22,33.3,33.1c2.8,2.8,7,5.6,2.4,10c-4,3.9-6.7,0.5-9.4-2.2
	c-22.5-22.3-44.9-44.5-67.4-66.8c-2.8-2.7-5.7-5.8-1.8-9.5c3.8-3.6,6.8-0.4,9.5,2.3C366,288.4,377.1,299.5,388.2,310.5z"/>
<path class="st0" d="M387.9,318c-11.1,11-22.2,22.1-33.3,33.1c-2.8,2.8-5.6,6.9-10.1,2.4c-3.9-4-0.4-6.7,2.2-9.3
	c22.4-22.3,44.9-44.6,67.3-66.9c2.8-2.7,5.9-5.6,9.5-1.8c3.6,3.8,0.3,6.8-2.3,9.5C410.2,295.9,399,307,387.9,318z"/>
<path class="st1" d="M133.5,38.4C123.4,28,113.2,17.5,103,7.1c-2.6-2.6-5.1-6.5-9.3-2.4c-3.7,3.7-0.5,6.3,1.9,8.7
	c20.5,21.1,41.1,42.2,61.6,63.3c2.5,2.6,5.4,5.3,8.8,1.8c3.4-3.5,0.4-6.3-2-8.9C153.9,59.3,143.7,48.8,133.5,38.4z"/>
<path class="st1" d="M133.5,112.5c-10.2,10.4-20.3,20.9-30.5,31.3c-2.6,2.6-5.1,6.5-9.3,2.4c-3.7-3.7-0.5-6.3,1.9-8.7
	c20.5-21.1,41.1-42.2,61.6-63.3c2.5-2.6,5.4-5.3,8.8-1.8c3.4,3.5,0.4,6.3-2,8.9C153.9,91.7,143.7,102.1,133.5,112.5z"/>
<path class="st1" d="M34.1,35.5C44.2,25,54.4,14.6,64.6,4.2c2.6-2.6,5.1-6.5,9.3-2.4c3.7,3.7,0.5,6.3-1.9,8.7
	C51.4,31.7,30.9,52.8,10.3,73.9c-2.5,2.6-5.4,5.3-8.8,1.8c-3.4-3.5-0.4-6.3,2-8.9C13.7,56.3,23.9,45.9,34.1,35.5z"/>
<path class="st1" d="M34.1,109.6c10.2,10.4,20.3,20.9,30.5,31.3c2.6,2.6,5.1,6.5,9.3,2.4c3.7-3.7,0.5-6.3-1.9-8.7
	c-20.5-21.1-41.1-42.2-61.6-63.3c-2.5-2.6-5.4-5.3-8.8-1.8c-3.4,3.5-0.4,6.3,2,8.9C13.7,88.7,23.9,99.2,34.1,109.6z"/>
<path class="st0" d="M368,29.2c-10.4,10.2-20.9,20.3-31.3,30.5c-2.6,2.6-6.5,5.1-2.4,9.3c3.7,3.7,6.3,0.5,8.7-1.9
	c21.1-20.5,42.2-41.1,63.3-61.6c2.6-2.5,5.3-5.4,1.8-8.8c-3.5-3.4-6.3-0.4-8.9,2C388.9,8.8,378.4,19,368,29.2z"/>
<path class="st0" d="M442.1,29.2c10.4,10.2,20.9,20.3,31.3,30.5c2.6,2.6,6.5,5.1,2.4,9.3c-3.7,3.7-6.3,0.5-8.7-1.9
	C445.9,46.6,424.8,26,403.7,5.5c-2.6-2.5-5.3-5.4-1.8-8.8c3.5-3.4,6.3-0.4,8.9,2C421.3,8.8,431.7,19,442.1,29.2z"/>
<path class="st0" d="M368,128.6c-10.4-10.2-20.9-20.3-31.3-30.5c-2.6-2.6-6.5-5.1-2.4-9.3c3.7-3.7,6.3-0.5,8.7,1.9
	c21.1,20.5,42.2,41.1,63.3,61.6c2.6,2.5,5.3,5.4,1.8,8.8c-3.5,3.4-6.3,0.4-8.9-2C388.9,149,378.4,138.8,368,128.6z"/>
<path class="st0" d="M442.1,128.6c10.4-10.2,20.9-20.3,31.3-30.5c2.6-2.6,6.5-5.1,2.4-9.3c-3.7-3.7-6.3-0.5-8.7,1.9
	c-21.1,20.5-42.2,41.1-63.3,61.6c-2.6,2.5-5.3,5.4-1.8,8.8c3.5,3.4,6.3,0.4,8.9-2C421.3,149,431.7,138.8,442.1,128.6z"/>
<path class="st0" d="M113.7-263.2c7.9,13.5,15.8,27,23.6,40.6c2,3.4,5.3,7.2-0.2,10.3c-4.9,2.8-6.6-1.3-8.5-4.5
	c-16-27.3-31.9-54.6-47.8-82c-2-3.4-4-7.1,0.7-9.6c4.6-2.5,6.7,1.4,8.6,4.6C98-290.2,105.8-276.7,113.7-263.2z"/>
<path class="st0" d="M63-257.9c-7.9,13.5-15.7,27.1-23.6,40.6c-2,3.4-3.7,8.1-9.1,4.9c-4.8-2.9-2.1-6.4-0.3-9.6
	c15.9-27.4,31.7-54.7,47.6-82.1c2-3.4,4.2-7,8.7-4.2c4.5,2.8,2.1,6.5,0.2,9.8C78.8-285,70.9-271.4,63-257.9z"/>
<path class="st0" d="M113.5-123.7c7.9-13.5,15.8-27,23.6-40.6c2-3.4,5.3-7.2-0.2-10.3c-4.9-2.8-6.6,1.3-8.5,4.5
	c-16,27.3-31.9,54.6-47.8,82c-2,3.4-4,7.1,0.7,9.6c4.6,2.5,6.7-1.4,8.6-4.6C97.8-96.7,105.7-110.2,113.5-123.7z"/>
<path class="st0" d="M62.9-129.1c-7.9-13.5-15.7-27.1-23.6-40.6c-2-3.4-3.7-8.1-9.1-4.9c-4.8,2.9-2.1,6.4-0.3,9.6
	c15.9,27.4,31.7,54.7,47.6,82.1c2,3.4,4.2,7,8.7,4.2c4.5-2.8,2.1-6.5,0.2-9.8C78.6-102,70.7-115.5,62.9-129.1z"/>
<path class="st0" d="M472-164c-13.5,7.9-27,15.8-40.6,23.6c-3.4,2-7.2,5.3-10.3-0.2c-2.8-4.9,1.3-6.6,4.5-8.5
	c27.3-16,54.6-31.9,82-47.8c3.4-2,7.1-4,9.6,0.7c2.5,4.6-1.4,6.7-4.6,8.6C499.1-179.8,485.5-171.9,472-164z"/>
<path class="st0" d="M466.7-214.7c-13.5-7.9-27.1-15.7-40.6-23.6c-3.4-2-8.1-3.7-4.9-9.1c2.9-4.8,6.4-2.1,9.6-0.3
	c27.4,15.9,54.7,31.7,82.1,47.6c3.4,2,7,4.2,4.2,8.7c-2.8,4.5-6.5,2.1-9.8,0.2C493.8-199,480.2-206.9,466.7-214.7z"/>
<path class="st0" d="M332.6-164.2c13.5,7.9,27,15.8,40.6,23.6c3.4,2,7.2,5.3,10.3-0.2c2.8-4.9-1.3-6.6-4.5-8.5
	c-27.3-16-54.6-31.9-82-47.8c-3.4-2-7.1-4-9.6,0.7c-2.5,4.6,1.4,6.7,4.6,8.6C305.5-180,319-172.1,332.6-164.2z"/>
<path class="st0" d="M337.9-214.9c13.5-7.9,27.1-15.7,40.6-23.6c3.4-2,8.1-3.7,4.9-9.1c-2.9-4.8-6.4-2.1-9.6-0.3
	c-27.4,15.9-54.7,31.7-82.1,47.6c-3.4,2-7,4.2-4.2,8.7c2.8,4.5,6.5,2.1,9.8,0.2C310.8-199.2,324.3-207,337.9-214.9z"/>
<path class="st1" d="M423,456.6c-10.2-10.4-20.3-20.9-30.5-31.3c-2.6-2.6-5.1-6.5-9.3-2.4c-3.7,3.7-0.5,6.3,1.9,8.7
	c20.5,21.1,41.1,42.2,61.6,63.3c2.5,2.6,5.4,5.3,8.8,1.8c3.4-3.5,0.4-6.3-2-8.9C443.3,477.4,433.2,467,423,456.6z"/>
<path class="st1" d="M423,530.7c-10.2,10.4-20.3,20.9-30.5,31.3c-2.6,2.6-5.1,6.5-9.3,2.4c-3.7-3.7-0.5-6.3,1.9-8.7
	c20.5-21.1,41.1-42.2,61.6-63.3c2.5-2.6,5.4-5.3,8.8-1.8c3.4,3.5,0.4,6.3-2,8.9C443.3,509.8,433.2,520.3,423,530.7z"/>
<path class="st1" d="M350.5,456.6c10.2-10.4,20.3-20.9,30.5-31.3c2.6-2.6,5.1-6.5,9.3-2.4c3.7,3.7,0.5,6.3-1.9,8.7
	c-20.5,21.1-41.1,42.2-61.6,63.3c-2.5,2.6-5.4,5.3-8.8,1.8c-3.4-3.5-0.4-6.3,2-8.9C330.2,477.4,340.4,467,350.5,456.6z"/>
<path class="st1" d="M350.5,530.7c10.2,10.4,20.3,20.9,30.5,31.3c2.6,2.6,5.1,6.5,9.3,2.4c3.7-3.7,0.5-6.3-1.9-8.7
	c-20.5-21.1-41.1-42.2-61.6-63.3c-2.5-2.6-5.4-5.3-8.8-1.8c-3.4,3.5-0.4,6.3,2,8.9C330.2,509.8,340.4,520.3,350.5,530.7z"/>
<g>
	<path class="st2" d="M-346.2-469.5c-1.3-3.5-3.1-8.7-4.2-11.8c-1.2,3.3-3,8.5-4.2,11.4l-11.4,29.1h30.9L-346.2-469.5z
		 M-368.2-434.8l-8.2,21.1c-1.3,3.3-1.4,3.4-4.5,3.4c-2,0-3.4-0.9-3.4-2.4c0-0.8,0-0.9,0.8-2.9l27.8-69.1c1.4-3.4,1.3-3.4,5-3.4h0.9
		c3.7,0,3.7,0,5,3.4l27.4,69.1c0.9,2,0.9,2.1,0.9,2.9c0,1.3-1.4,2.4-2.9,2.4h-0.3c-3.7,0-3.7,0-5-3.5l-8.1-21H-368.2z"/>
	<path class="st2" d="M-245.8-441.5c0,11.3-1.2,16.4-5.2,22.1c-5.1,7.2-13.1,10.7-24.9,10.7c-12.5,0-21.5-4.4-26.4-12.9
		c-2.8-5-3.8-10.4-3.8-20.1v-41.8c0-3.7,0.6-4.5,3.3-4.5c3.6,0,4.1,0.6,4.1,4.5v42c0,19.1,6.6,26.7,23.3,26.7
		c16,0,22.3-7.6,22.3-26.8v-41.9c0-3.7,0.6-4.5,3.3-4.5c3.6,0,4.1,0.6,4.1,4.5V-441.5z"/>
	<path class="st2" d="M-224.9-468.7c0,8.1,3.6,10.7,20.9,14.7c12.5,2.9,16.4,4.1,20.3,6.4c6,3.7,9.2,9.1,9.2,16.1
		c0,14.3-11.1,22.9-29.3,22.9c-11.7,0-21-3.8-26-10.9c-2.8-4-4.6-9.3-4.6-13.7c0-1.7,1.2-2.8,3.1-2.8c3.6,0,3.7,0.1,4.3,5.4
		c1.2,9.4,10.7,15.9,23.3,15.9c14.2,0,22.1-5.8,22.1-16.2c0-5.6-3-9.5-9.1-12.1c-3.4-1.4-6.2-2.2-17.1-4.8
		c-10.3-2.3-13.9-3.6-17.7-6.3c-4.3-2.9-6.7-8-6.7-14c0-13.4,10.2-21.7,27.1-21.7c10.9,0,19,3.5,23.9,10.2c2.1,3,3.9,8,3.9,10.9
		c0,2.2-1,3-3.7,3c-2.9,0-2.9,0-4.2-5.8c-1.5-7.2-9.9-12.2-20.6-12.2C-217.7-483.6-224.9-478-224.9-468.7"/>
	<path class="st2" d="M-322.5-396.3c0,8.1,3.6,10.7,20.9,14.7c12.5,2.9,16.4,4.1,20.3,6.4c6,3.7,9.2,9.1,9.2,16.1
		c0,14.3-11.1,22.9-29.3,22.9c-11.7,0-21-3.8-26-10.9c-2.8-4-4.6-9.3-4.6-13.7c0-1.7,1.2-2.8,3.1-2.8c3.6,0,3.7,0.1,4.3,5.4
		c1.2,9.4,10.7,15.9,23.3,15.9c14.2,0,22.1-5.8,22.1-16.2c0-5.6-3-9.5-9.1-12.1c-3.4-1.4-6.2-2.2-17.1-4.8
		c-10.3-2.3-13.9-3.6-17.6-6.3c-4.3-2.9-6.7-8-6.7-14c0-13.4,10.2-21.7,27.1-21.7c10.9,0,19,3.5,23.9,10.2c2.1,3,3.9,8,3.9,10.9
		c0,2.2-1,3-3.7,3c-2.9,0-2.9,0-4.2-5.8c-1.5-7.2-9.9-12.2-20.6-12.2C-315.3-411.2-322.5-405.6-322.5-396.3"/>
	<path class="st2" d="M-231.7-342.5c0,3.7-0.6,4.5-3.3,4.5c-3.6,0-4.1-0.6-4.1-4.5v-66.7h-22.8c-3.7,0-4.5-0.6-4.5-3.3
		c0-2.6,0.8-3.1,4.5-3.1h52.7c3.7,0,4.5,0.6,4.5,3.1c0,2.7-0.8,3.3-4.5,3.3h-22.6V-342.5z"/>
	<path class="st2" d="M-185.4-381.4h38.9c3.7,0,4.5,0.6,4.5,3.1c0,2.7-0.8,3.3-4.5,3.3h-38.9v30.6h42.3c3.7,0,4.5,0.6,4.5,3.1
		c0,2.7-0.8,3.3-4.5,3.3h-45.1c-4.2,0-4.5-0.3-4.5-4.5v-68.6c0-4.2,0.3-4.5,4.5-4.5h44.6c3.7,0,4.5,0.6,4.5,3.1
		c0,2.7-0.8,3.3-4.5,3.3h-41.8V-381.4z"/>
	<path class="st2" d="M-78.5-344.4c3.7,0,4.5,0.6,4.5,3.1c0,2.7-0.8,3.3-4.5,3.3h-41.8c-4.2,0-4.5-0.3-4.5-4.5v-68.6
		c0-3.7,0.6-4.5,3.3-4.5c3.6,0,4.1,0.6,4.1,4.5v66.7H-78.5z"/>
	<path class="st2" d="M-315.9-269.5c3.7,0,4.5,0.6,4.5,3.1c0,2.7-0.8,3.3-4.5,3.3h-41.8c-4.2,0-4.5-0.3-4.5-4.5v-68.6
		c0-3.7,0.6-4.5,3.3-4.5c3.6,0,4.1,0.6,4.1,4.5v66.7H-315.9z"/>
	<path class="st2" d="M-256.6-294.2c0,11.3-1.2,16.4-5.2,22.1c-5.1,7.2-13.1,10.7-24.9,10.7c-12.5,0-21.5-4.4-26.4-12.9
		c-2.8-5-3.8-10.4-3.8-20.1v-41.8c0-3.7,0.6-4.5,3.3-4.5c3.6,0,4.1,0.6,4.1,4.5v42c0,19.1,6.6,26.7,23.3,26.7
		c16,0,22.3-7.6,22.3-26.8v-41.9c0-3.7,0.6-4.5,3.3-4.5c3.6,0,4.1,0.6,4.1,4.5V-294.2z"/>
	<path class="st2" d="M-273.7-242.6c-0.6-0.8-1.5-2.2-4.4-6.9c-3.8-5.9-3.9-6.1-5.8-9.9c0.2,3.1,0.3,4.8,0.3,7.6v5.6l0.1,1.9v1.7
		v1.9v45.6c0,3.6-0.6,4.5-3.3,4.5c-3.4,0-3.8-0.6-3.8-4.5v-68.6c0-4,0.5-4.5,4.1-4.5h0.9c3.5,0,3,0,5,2.7l34.3,49.9
		c3.4,4.9,7.1,10.9,10.1,16.3c-0.2-5.4-0.5-15.2-0.5-20.5v-43.9c0-3.6,0.6-4.5,3.3-4.5c3.4,0,3.8,0.6,3.8,4.5v68.6
		c0,4-0.5,4.5-4.1,4.5h-0.9c-3.5,0-3.1,0-5.1-2.7L-273.7-242.6z"/>
	<path class="st2" d="M-151.5-205c-4.8,10.4-14.6,16.2-27.6,16.2c-21.4,0-36-16.3-36-40.2c0-24.1,15.1-41,36.5-41
		c12.9,0,22.6,5,28.6,14.7c2,3,3.3,6.5,3.3,8.4c0,1.7-1.3,2.7-3.7,2.7c-1.9,0-2.7-0.6-3.3-2.1c-4.1-11.6-12.1-17.2-24.7-17.2
		c-17.7,0-29.3,13.7-29.3,34.6c0,20.4,11.6,33.8,29.3,33.8c16.7,0,26.8-10.8,26.9-28.7h-22.1c-3.6,0-4.5-0.6-4.5-3
		c0-2.4,0.9-3,4.5-3h24c4.2,0,4.5,0.3,4.5,4.5v30.4c0,3.4-0.7,4.5-2.6,4.5c-1.9,0-2.4-0.9-2.8-4.2L-151.5-205z"/>
</g>
</svg>
