<?xml version="1.0" encoding="utf-8"?>
<!-- Generator: Adobe Illustrator 19.1.0, SVG Export Plug-In . SVG Version: 6.00 Build 0)  -->
<svg version="1.1" id="Ebene_1" xmlns="http://www.w3.org/2000/svg" xmlns:xlink="http://www.w3.org/1999/xlink" x="0px" y="0px"
	 viewBox="0 0 75.6 145.1" style="enable-background:new 0 0 75.6 145.1;" xml:space="preserve">
<style type="text/css">
	.st0{fill-rule:evenodd;clip-rule:evenodd;fill:#121212;}
	.st1{fill-rule:evenodd;clip-rule:evenodd;fill:#FFFFFF;}
	.st2{fill-rule:evenodd;clip-rule:evenodd;fill:#FCFCFC;}
</style>
<path class="st1" d="M34.1,35.5C44.2,25,54.4,14.6,64.6,4.2c2.6-2.6,5.1-6.5,9.3-2.4c3.7,3.7,0.5,6.3-1.9,8.7
	C51.4,31.7,30.9,52.8,10.3,73.9c-2.5,2.6-5.4,5.3-8.8,1.8c-3.4-3.5-0.4-6.3,2-8.9C13.7,56.3,23.9,45.9,34.1,35.5z"/>
<path class="st2" d="M34.1,109.6c10.2,10.4,20.3,20.9,30.5,31.3c2.6,2.6,5.1,6.5,9.3,2.4c3.7-3.7,0.5-6.3-1.9-8.7
	c-20.5-21.1-41.1-42.2-61.6-63.3c-2.5-2.6-5.4-5.3-8.8-1.8c-3.4,3.5-0.4,6.3,2,8.9C13.7,88.7,23.9,99.2,34.1,109.6z"/>
</svg>
