<?xml version="1.0" encoding="utf-8"?>
<!-- Generator: Adobe Illustrator 19.1.0, SVG Export Plug-In . SVG Version: 6.00 Build 0)  -->
<svg version="1.1" id="Ebene_1" xmlns="http://www.w3.org/2000/svg" xmlns:xlink="http://www.w3.org/1999/xlink" x="0px" y="0px"
	 viewBox="0 0 310.3 301" style="enable-background:new 0 0 310.3 301;" xml:space="preserve">
<style type="text/css">
	.st0{fill-rule:evenodd;clip-rule:evenodd;fill:#121212;}
	.st1{fill-rule:evenodd;clip-rule:evenodd;fill:#FFFFFF;}
	.st2{fill-rule:evenodd;clip-rule:evenodd;fill:#FCFCFC;}
	.st3{fill:#4B4B4B;}
	.st4{fill:#3C5154;}
</style>
<path class="st0" d="M459.6,804.7c15.6-0.1,31.3-0.2,46.9-0.2c3.9,0,8.9-1,8.8,5.4c0,5.6-4.4,5.1-8.1,5.1
	c-31.6,0.2-63.3,0.3-94.9,0.4c-3.9,0-8.1-0.1-8-5.4c0.1-5.3,4.5-5.1,8.3-5.1C428.3,804.8,444,804.7,459.6,804.7z"/>
<path class="st0" d="M464.7,810.2c0,15.6-0.1,31.3-0.2,46.9c0,3.9,0.9,8.9-5.4,8.8c-5.6-0.1-5-4.5-5-8.2c0.1-31.6,0.2-63.3,0.3-94.9
	c0-3.9,0.2-8.1,5.5-7.9c5.3,0.2,5,4.6,5,8.4C464.9,778.9,464.8,794.5,464.7,810.2z"/>
<path class="st0" d="M772.5,800.3c11.1,11,22.2,22,33.3,33.1c2.8,2.8,7,5.6,2.4,10c-4,3.9-6.7,0.5-9.4-2.2
	c-22.5-22.3-44.9-44.5-67.4-66.8c-2.8-2.7-5.7-5.8-1.8-9.5c3.8-3.6,6.8-0.4,9.5,2.3C750.3,778.2,761.4,789.2,772.5,800.3z"/>
<path class="st0" d="M772.3,807.7c-11.1,11-22.2,22.1-33.3,33.1c-2.8,2.8-5.6,6.9-10.1,2.4c-3.9-4-0.4-6.7,2.2-9.3
	c22.4-22.3,44.9-44.6,67.3-66.9c2.8-2.7,5.9-5.6,9.5-1.8c3.6,3.8,0.3,6.8-2.3,9.5C794.5,785.7,783.4,796.7,772.3,807.7z"/>
<path class="st1" d="M517.8,528.2c-10.2-10.4-20.3-20.9-30.5-31.3c-2.6-2.6-5.1-6.5-9.3-2.4c-3.7,3.7-0.5,6.3,1.9,8.7
	c20.5,21.1,41.1,42.2,61.6,63.3c2.5,2.6,5.4,5.3,8.8,1.8c3.4-3.5,0.4-6.3-2-8.9C538.2,549,528,538.6,517.8,528.2z"/>
<path class="st1" d="M517.8,602.3c-10.2,10.4-20.3,20.9-30.5,31.3c-2.6,2.6-5.1,6.5-9.3,2.4c-3.7-3.7-0.5-6.3,1.9-8.7
	c20.5-21.1,41.1-42.2,61.6-63.3c2.5-2.6,5.4-5.3,8.8-1.8c3.4,3.5,0.4,6.3-2,8.9C538.2,581.4,528,591.9,517.8,602.3z"/>
<path class="st1" d="M418.4,525.2c10.2-10.4,20.3-20.9,30.5-31.3c2.6-2.6,5.1-6.5,9.3-2.4c3.7,3.7,0.5,6.3-1.9,8.7
	c-20.5,21.1-41.1,42.2-61.6,63.3c-2.5,2.6-5.4,5.3-8.8,1.8c-3.4-3.5-0.4-6.3,2-8.9C398,546.1,408.2,535.7,418.4,525.2z"/>
<path class="st2" d="M418.4,599.4c10.2,10.4,20.3,20.9,30.5,31.3c2.6,2.6,5.1,6.5,9.3,2.4c3.7-3.7,0.5-6.3-1.9-8.7
	c-20.5-21.1-41.1-42.2-61.6-63.3c-2.5-2.6-5.4-5.3-8.8-1.8c-3.4,3.5-0.4,6.3,2,8.9C398,578.5,408.2,588.9,418.4,599.4z"/>
<path class="st0" d="M752.3,518.9c-10.4,10.2-20.9,20.3-31.3,30.5c-2.6,2.6-6.5,5.1-2.4,9.3c3.7,3.7,6.3,0.5,8.7-1.9
	c21.1-20.5,42.2-41.1,63.3-61.6c2.6-2.5,5.3-5.4,1.8-8.8c-3.5-3.4-6.3-0.4-8.9,2C773.2,498.6,762.7,508.8,752.3,518.9z"/>
<path class="st0" d="M826.4,518.9c10.4,10.2,20.9,20.3,31.3,30.5c2.6,2.6,6.5,5.1,2.4,9.3c-3.7,3.7-6.3,0.5-8.7-1.9
	c-21.1-20.5-42.2-41.1-63.3-61.6c-2.6-2.5-5.3-5.4-1.8-8.8c3.5-3.4,6.3-0.4,8.9,2C805.6,498.6,816,508.8,826.4,518.9z"/>
<path class="st0" d="M752.3,618.4c-10.4-10.2-20.9-20.3-31.3-30.5c-2.6-2.6-6.5-5.1-2.4-9.3c3.7-3.7,6.3-0.5,8.7,1.9
	c21.1,20.5,42.2,41.1,63.3,61.6c2.6,2.5,5.3,5.4,1.8,8.8c-3.5,3.4-6.3,0.4-8.9-2C773.2,638.7,762.7,628.6,752.3,618.4z"/>
<path class="st0" d="M826.4,618.4c10.4-10.2,20.9-20.3,31.3-30.5c2.6-2.6,6.5-5.1,2.4-9.3c-3.7-3.7-6.3-0.5-8.7,1.9
	c-21.1,20.5-42.2,41.1-63.3,61.6c-2.6,2.5-5.3,5.4-1.8,8.8c3.5,3.4,6.3,0.4,8.9-2C805.6,638.7,816,628.6,826.4,618.4z"/>
<path class="st0" d="M498,226.6c7.9,13.5,15.8,27,23.6,40.6c2,3.4,5.3,7.2-0.2,10.3c-4.9,2.8-6.6-1.3-8.5-4.5
	c-16-27.3-31.9-54.6-47.8-82c-2-3.4-4-7.1,0.7-9.6c4.6-2.5,6.7,1.4,8.6,4.6C482.3,199.5,490.1,213,498,226.6z"/>
<path class="st0" d="M447.3,231.9c-7.9,13.5-15.7,27.1-23.6,40.6c-2,3.4-3.7,8.1-9.1,4.9c-4.8-2.9-2.1-6.4-0.3-9.6
	c15.9-27.4,31.7-54.7,47.6-82.1c2-3.4,4.2-7,8.7-4.2c4.5,2.8,2.1,6.5,0.2,9.8C463.1,204.8,455.2,218.3,447.3,231.9z"/>
<path class="st0" d="M497.9,366c7.9-13.5,15.8-27,23.6-40.6c2-3.4,5.3-7.2-0.2-10.3c-4.9-2.8-6.6,1.3-8.5,4.5
	c-16,27.3-31.9,54.6-47.8,82c-2,3.4-4,7.1,0.7,9.6c4.6,2.5,6.7-1.4,8.6-4.6C482.1,393.1,490,379.5,497.9,366z"/>
<path class="st0" d="M447.2,360.7c-7.9-13.5-15.7-27.1-23.6-40.6c-2-3.4-3.7-8.1-9.1-4.9c-4.8,2.9-2.1,6.4-0.3,9.6
	c15.9,27.4,31.7,54.7,47.6,82.1c2,3.4,4.2,7,8.7,4.2c4.5-2.8,2.1-6.5,0.2-9.8C462.9,387.8,455,374.2,447.2,360.7z"/>
<path class="st0" d="M856.3,325.7c-13.5,7.9-27,15.8-40.6,23.6c-3.4,2-7.2,5.3-10.3-0.2c-2.8-4.9,1.3-6.6,4.5-8.5
	c27.3-16,54.6-31.9,82-47.8c3.4-2,7.1-4,9.6,0.7c2.5,4.6-1.4,6.7-4.6,8.6C883.4,310,869.9,317.9,856.3,325.7z"/>
<path class="st0" d="M851,275.1c-13.5-7.9-27.1-15.7-40.6-23.6c-3.4-2-8.1-3.7-4.9-9.1c2.9-4.8,6.4-2.1,9.6-0.3
	c27.4,15.9,54.7,31.7,82.1,47.6c3.4,2,7,4.2,4.2,8.7c-2.8,4.5-6.5,2.1-9.8,0.2C878.1,290.8,864.6,282.9,851,275.1z"/>
<path class="st0" d="M716.9,325.6c13.5,7.9,27,15.8,40.6,23.6c3.4,2,7.2,5.3,10.3-0.2c2.8-4.9-1.3-6.6-4.5-8.5
	c-27.3-16-54.6-31.9-82-47.8c-3.4-2-7.1-4-9.6,0.7c-2.5,4.6,1.4,6.7,4.6,8.6C689.8,309.8,703.4,317.7,716.9,325.6z"/>
<path class="st0" d="M722.2,274.9c13.5-7.9,27.1-15.7,40.6-23.6c3.4-2,8.1-3.7,4.9-9.1c-2.9-4.8-6.4-2.1-9.6-0.3
	c-27.4,15.9-54.7,31.7-82.1,47.6c-3.4,2-7,4.2-4.2,8.7c2.8,4.5,6.5,2.1,9.8,0.2C695.1,290.6,708.7,282.7,722.2,274.9z"/>
<path class="st1" d="M807.3,946.3c-10.2-10.4-20.3-20.9-30.5-31.3c-2.6-2.6-5.1-6.5-9.3-2.4c-3.7,3.7-0.5,6.3,1.9,8.7
	c20.5,21.1,41.1,42.2,61.6,63.3c2.5,2.6,5.4,5.3,8.8,1.8c3.4-3.5,0.4-6.3-2-8.9C827.6,967.2,817.5,956.8,807.3,946.3z"/>
<path class="st1" d="M807.3,1020.5c-10.2,10.4-20.3,20.9-30.5,31.3c-2.6,2.6-5.1,6.5-9.3,2.4c-3.7-3.7-0.5-6.3,1.9-8.7
	c20.5-21.1,41.1-42.2,61.6-63.3c2.5-2.6,5.4-5.3,8.8-1.8c3.4,3.5,0.4,6.3-2,8.9C827.6,999.6,817.5,1010,807.3,1020.5z"/>
<path class="st1" d="M734.8,946.3c10.2-10.4,20.3-20.9,30.5-31.3c2.6-2.6,5.1-6.5,9.3-2.4c3.7,3.7,0.5,6.3-1.9,8.7
	c-20.5,21.1-41.1,42.2-61.6,63.3c-2.5,2.6-5.4,5.3-8.8,1.8c-3.4-3.5-0.4-6.3,2-8.9C714.5,967.2,724.7,956.8,734.8,946.3z"/>
<path class="st1" d="M734.8,1020.5c10.2,10.4,20.3,20.9,30.5,31.3c2.6,2.6,5.1,6.5,9.3,2.4c3.7-3.7,0.5-6.3-1.9-8.7
	c-20.5-21.1-41.1-42.2-61.6-63.3c-2.5-2.6-5.4-5.3-8.8-1.8c-3.4,3.5-0.4,6.3,2,8.9C714.5,999.6,724.7,1010,734.8,1020.5z"/>
<g>
	<path class="st3" d="M38.1,20.3c-1.3-3.5-3.1-8.7-4.2-11.8c-1.2,3.3-3,8.5-4.2,11.4L18.3,49h30.9L38.1,20.3z M16.1,54.9L7.9,76
		c-1.3,3.3-1.4,3.4-4.5,3.4c-2,0-3.4-0.9-3.4-2.4C0,76.1,0,76,0.8,74L28.6,4.9c1.4-3.4,1.3-3.4,5-3.4h0.9c3.7,0,3.7,0,5,3.4L66.9,74
		c0.9,2,0.9,2.1,0.9,2.9c0,1.3-1.4,2.4-2.9,2.4h-0.3c-3.7,0-3.7,0-5-3.5l-8.1-21H16.1z"/>
	<path class="st3" d="M138.5,48.3c0,11.3-1.2,16.4-5.2,22.1c-5.1,7.2-13.1,10.7-24.9,10.7c-12.5,0-21.5-4.4-26.4-12.9
		c-2.8-5-3.8-10.4-3.8-20.1V6.3c0-3.7,0.6-4.5,3.3-4.5c3.6,0,4.1,0.6,4.1,4.5v42c0,19.1,6.6,26.7,23.3,26.7c16,0,22.3-7.6,22.3-26.8
		V6.3c0-3.7,0.6-4.5,3.3-4.5c3.6,0,4.1,0.6,4.1,4.5V48.3z"/>
	<path class="st3" d="M159.4,21.1c0,8.1,3.6,10.7,20.9,14.7c12.5,2.9,16.4,4.1,20.3,6.4c6,3.7,9.2,9.1,9.2,16.1
		c0,14.3-11.1,22.9-29.3,22.9c-11.7,0-21-3.8-26-10.9c-2.8-4-4.6-9.3-4.6-13.7c0-1.7,1.2-2.8,3.1-2.8c3.6,0,3.7,0.1,4.3,5.4
		C158.5,68.4,168,75,180.7,75c14.2,0,22.1-5.8,22.1-16.2c0-5.6-3-9.5-9.1-12.1c-3.4-1.4-6.2-2.2-17.1-4.8
		c-10.3-2.3-13.9-3.6-17.7-6.3c-4.3-2.9-6.7-8-6.7-14C152.2,8.3,162.4,0,179.3,0c10.9,0,19,3.5,23.9,10.2c2.1,3,3.9,8,3.9,10.9
		c0,2.2-1,3-3.7,3c-2.9,0-2.9,0-4.2-5.8c-1.5-7.2-9.9-12.2-20.6-12.2C166.6,6.2,159.4,11.8,159.4,21.1"/>
	<path class="st3" d="M61.8,93.5c0,8.1,3.6,10.7,20.9,14.7c12.5,2.9,16.4,4.1,20.3,6.4c6,3.7,9.2,9.1,9.2,16.1
		c0,14.3-11.1,22.9-29.3,22.9c-11.7,0-21-3.8-26-10.9c-2.8-4-4.6-9.3-4.6-13.7c0-1.7,1.2-2.8,3.1-2.8c3.6,0,3.7,0.1,4.3,5.4
		c1.2,9.4,10.7,15.9,23.3,15.9c14.2,0,22.1-5.8,22.1-16.2c0-5.6-3-9.5-9.1-12.1c-3.4-1.4-6.2-2.2-17.1-4.8
		c-10.3-2.3-13.9-3.6-17.6-6.3c-4.3-2.9-6.7-8-6.7-14c0-13.4,10.2-21.7,27.1-21.7c10.9,0,19,3.5,23.9,10.2c2.1,3,3.9,8,3.9,10.9
		c0,2.2-1,3-3.7,3c-2.9,0-2.9,0-4.2-5.8c-1.5-7.2-9.9-12.2-20.6-12.2C69,78.6,61.8,84.2,61.8,93.5"/>
	<path class="st3" d="M152.6,147.3c0,3.7-0.6,4.5-3.3,4.5c-3.6,0-4.1-0.6-4.1-4.5V80.6h-22.8c-3.7,0-4.5-0.6-4.5-3.3
		c0-2.6,0.8-3.1,4.5-3.1h52.7c3.7,0,4.5,0.6,4.5,3.1c0,2.7-0.8,3.3-4.5,3.3h-22.6V147.3z"/>
	<path class="st3" d="M199,108.4h38.9c3.7,0,4.5,0.6,4.5,3.1c0,2.7-0.8,3.3-4.5,3.3H199v30.6h42.3c3.7,0,4.5,0.6,4.5,3.1
		c0,2.7-0.8,3.3-4.5,3.3h-45.1c-4.2,0-4.5-0.3-4.5-4.5V78.7c0-4.2,0.3-4.5,4.5-4.5h44.6c3.7,0,4.5,0.6,4.5,3.1
		c0,2.7-0.8,3.3-4.5,3.3H199V108.4z"/>
	<path class="st3" d="M305.8,145.4c3.7,0,4.5,0.6,4.5,3.1c0,2.7-0.8,3.3-4.5,3.3H264c-4.2,0-4.5-0.3-4.5-4.5V78.7
		c0-3.7,0.6-4.5,3.3-4.5c3.6,0,4.1,0.6,4.1,4.5v66.7H305.8z"/>
	<path class="st3" d="M68.5,220.3c3.7,0,4.5,0.6,4.5,3.1c0,2.7-0.8,3.3-4.5,3.3H26.6c-4.2,0-4.5-0.3-4.5-4.5v-68.6
		c0-3.7,0.6-4.5,3.3-4.5c3.6,0,4.1,0.6,4.1,4.5v66.7H68.5z"/>
	<path class="st3" d="M127.7,195.6c0,11.3-1.2,16.4-5.2,22.1c-5.1,7.2-13.1,10.7-24.8,10.7c-12.5,0-21.5-4.4-26.4-12.9
		c-2.8-5-3.8-10.4-3.8-20.1v-41.8c0-3.7,0.6-4.5,3.3-4.5c3.6,0,4.1,0.6,4.1,4.5v42c0,19.1,6.6,26.7,23.3,26.7
		c16,0,22.3-7.6,22.3-26.8v-41.9c0-3.7,0.6-4.5,3.3-4.5c3.6,0,4.1,0.6,4.1,4.5V195.6z"/>
	<path class="st3" d="M110.6,247.2c-0.6-0.8-1.5-2.2-4.4-6.9c-3.8-5.9-3.9-6.1-5.8-9.9c0.2,3.1,0.3,4.8,0.3,7.6v5.6l0.1,1.9v1.7v1.9
		v45.6c0,3.6-0.6,4.5-3.3,4.5c-3.4,0-3.8-0.6-3.8-4.5v-68.6c0-4,0.5-4.5,4.1-4.5h0.9c3.5,0,3,0,5,2.7l34.3,49.9
		c3.4,4.9,7.1,10.9,10.1,16.3c-0.2-5.4-0.5-15.2-0.5-20.5v-43.9c0-3.6,0.6-4.5,3.3-4.5c3.4,0,3.8,0.6,3.8,4.5v68.6
		c0,4-0.5,4.5-4.1,4.5h-0.9c-3.5,0-3.1,0-5.1-2.7L110.6,247.2z"/>
	<path class="st3" d="M232.8,284.8c-4.8,10.4-14.6,16.2-27.6,16.2c-21.4,0-36-16.3-36-40.2c0-24.1,15.1-41,36.5-41
		c12.9,0,22.6,5,28.6,14.7c2,3,3.3,6.5,3.3,8.4c0,1.7-1.3,2.7-3.7,2.7c-1.9,0-2.7-0.6-3.3-2.1c-4.1-11.6-12.1-17.2-24.7-17.2
		c-17.7,0-29.3,13.7-29.3,34.6c0,20.4,11.6,33.8,29.3,33.8c16.7,0,26.8-10.8,26.9-28.7h-22.1c-3.6,0-4.5-0.6-4.5-3
		c0-2.4,0.9-3,4.5-3h24c4.2,0,4.5,0.3,4.5,4.5v30.4c0,3.4-0.7,4.5-2.6,4.5c-1.9,0-2.4-0.9-2.8-4.2L232.8,284.8z"/>
</g>
<g>
	<path class="st4" d="M112.3,560.5c1.5,1.9,1.8,2.3,1.8,3.4c0,1.6-1.6,2.7-3.9,2.7c-2,0-2.9-0.4-4-1.8c-0.1-0.2-0.4-0.6-0.7-0.9
		l-30.6-38.6l-15,13.6v22.9c0,3.7-0.6,4.6-3.3,4.6c-3.6,0-4.1-0.6-4.1-4.6v-68.9c0-3.7,0.6-4.6,3.3-4.6c3.6,0,4.1,0.6,4.1,4.6v37.4
		c3-2.9,4.1-4,5.1-4.9l38.1-35.1c0.5-0.5,0.7-0.7,0.9-0.8c1.1-1.1,1.6-1.3,3.2-1.3c2.1,0,3.6,1.2,3.6,2.7c0,1.1-0.5,1.8-2.2,3.4
		l-28.5,25.8L112.3,560.5z"/>
	<path class="st4" d="M157.1,506.9c-1.3-3.5-3.2-8.8-4.2-11.8c-1.2,3.3-3,8.5-4.2,11.5l-11.5,29.2h31.1L157.1,506.9z M135,541.7
		l-8.3,21.2c-1.3,3.3-1.4,3.4-4.6,3.4c-2,0-3.4-0.9-3.4-2.5c0-0.8,0-0.9,0.8-2.9l28-69.5c1.4-3.4,1.3-3.4,5-3.4h0.9
		c3.7,0,3.7,0,5,3.4l27.6,69.5c0.9,2,0.9,2.1,0.9,2.9c0,1.3-1.4,2.5-2.9,2.5h-0.4c-3.7,0-3.7,0-5-3.5l-8.2-21.1H135z"/>
	<path class="st4" d="M79.7,635.6c3.7,0,4.6,0.6,4.6,3.2c0,2.7-0.8,3.3-4.6,3.3H37.6c-4.2,0-4.6-0.4-4.6-4.6v-68.9
		c0-3.7,0.6-4.6,3.3-4.6c3.6,0,4.1,0.6,4.1,4.6v67H79.7z"/>
	<path class="st4" d="M97.8,598.4H137c3.7,0,4.6,0.6,4.6,3.2c0,2.7-0.8,3.3-4.6,3.3H97.8v30.8h42.6c3.7,0,4.6,0.6,4.6,3.2
		c0,2.7-0.8,3.3-4.6,3.3H95c-4.2,0-4.6-0.4-4.6-4.6v-68.9c0-4.2,0.3-4.6,4.6-4.6H140c3.7,0,4.6,0.6,4.6,3.2c0,2.7-0.8,3.3-4.6,3.3
		H97.8V598.4z"/>
	<path class="st4" d="M175.9,589.7c-0.6-0.8-1.5-2.2-4.4-6.9c-3.9-6-4-6.1-5.8-9.9c0.2,3.2,0.4,4.8,0.4,7.6v5.6l0.1,1.9v1.8v1.9
		v45.9c0,3.6-0.6,4.6-3.3,4.6c-3.4,0-3.9-0.6-3.9-4.6v-68.9c0-4,0.5-4.6,4.1-4.6h0.9c3.5,0,3,0,5,2.7l34.5,50.2
		c3.4,4.9,7.1,11,10.2,16.4c-0.2-5.4-0.5-15.3-0.5-20.6v-44.1c0-3.6,0.6-4.6,3.3-4.6c3.4,0,3.9,0.6,3.9,4.6v68.9
		c0,4-0.5,4.6-4.1,4.6h-0.9c-3.5,0-3.2,0-5.1-2.7L175.9,589.7z"/>
	<path class="st4" d="M101.1,711.6h18.6c11,0,16.5-1.9,21.4-7.1c5.7-6.1,8.3-14.5,8.3-26.4c0-20.7-9.8-31.6-28.5-31.6h-19.8V711.6z
		 M120.9,640c11.2,0,18.5,2.3,24.7,7.8c7.3,6.7,11.2,17.2,11.2,29.7c0,13.8-3.7,24.4-11,31.8c-6.2,6.3-12.9,8.7-24.3,8.7H98.3
		c-4.2,0-4.6-0.4-4.6-4.6v-68.9c0-4.2,0.4-4.6,4.6-4.6H120.9z"/>
	<path class="st4" d="M175,674.4h39.2c3.7,0,4.6,0.6,4.6,3.2c0,2.7-0.8,3.3-4.6,3.3H175v30.8h42.6c3.7,0,4.6,0.6,4.6,3.2
		c0,2.7-0.8,3.3-4.6,3.3h-45.4c-4.2,0-4.6-0.3-4.6-4.6v-68.9c0-4.2,0.4-4.6,4.6-4.6h44.9c3.7,0,4.6,0.6,4.6,3.2
		c0,2.7-0.8,3.3-4.6,3.3H175V674.4z"/>
	<path class="st4" d="M239.6,677.2h22c16.1,0,22.8-4.6,22.8-15.7c0-10.3-6.4-15.1-20.2-15.1h-24.6V677.2z M266.5,640
		c16.5,0,25.3,7.4,25.3,21.1c0,9.9-5.5,17-15.2,19.3c5,0.8,7.6,2.2,10.1,5.4c1.8,2.3,2.7,4.7,3.2,8.4c0.2,1.6,0.2,2.1,0.6,6.1
		l0.1,2.2l0.2,2.3c0.5,6.7,0.7,8.2,1.8,10.9c0.1,0.3,0.2,0.7,0.2,0.8c0,0.9-0.7,1.5-1.9,1.5h-1.6c-4.8,0-5.1-0.7-5.6-10.8
		c-0.6-13.1-1.4-16.3-4.8-19.9c-2.8-3-7.6-4.2-16.3-4.2h-22.9v30.3c0,3.7-0.6,4.6-3.3,4.6c-3.6,0-4.1-0.6-4.1-4.6v-68.9
		c0-4.2,0.4-4.6,4.6-4.6H266.5z"/>
</g>
</svg>
