<?xml version="1.0" encoding="utf-8"?>
<!-- Generator: Adobe Illustrator 16.0.4, SVG Export Plug-In . SVG Version: 6.00 Build 0)  -->
<!DOCTYPE svg PUBLIC "-//W3C//DTD SVG 1.1//EN" "http://www.w3.org/Graphics/SVG/1.1/DTD/svg11.dtd">
<svg version="1.1" xmlns="http://www.w3.org/2000/svg" xmlns:xlink="http://www.w3.org/1999/xlink" x="0px" y="0px" width="822px"
	 height="822px" viewBox="0 0 822 822" enable-background="new 0 0 822 822" xml:space="preserve">
<g id="Ebene_3" display="none">
	<rect display="inline" fill="#F4F4F4" width="822" height="822"/>
	<rect display="inline" fill="#F4F4F4" width="822" height="822"/>
	<rect display="inline" fill="#F4F4F4" width="822" height="822"/>
</g>
<g id="Ebene_6" display="none">
	
		<rect x="56" y="60" display="inline" fill="#F4F4F4" stroke="#000000" stroke-width="2" stroke-miterlimit="10" width="706" height="705"/>
</g>
<g id="Kalender" display="none">
	<rect x="37" y="59.381" display="inline" fill="none" width="1164" height="1763"/>
	<text transform="matrix(1 0 0 1 37 239.4692)" display="inline"><tspan x="0" y="0" font-family="'NimbusSansRound-Regular'" font-size="270">KA</tspan><tspan x="0" y="175" font-family="'NimbusSansRound-Regular'" font-size="270" letter-spacing="-31">							</tspan><tspan x="252" y="175" font-family="'NimbusSansRound-Regular'" font-size="270">LEN</tspan><tspan x="0" y="350" font-family="'NimbusSansRound-Regular'" font-size="270">D</tspan><tspan x="0" y="525" font-family="'NimbusSansRound-Regular'" font-size="270" letter-spacing="-31">							</tspan><tspan x="252" y="525" font-family="'NimbusSansRound-Regular'" font-size="270">ER</tspan></text>
</g>
<g id="Räumlichkeiten" display="none">
	<rect x="37" y="60" display="inline" fill="none" width="1164" height="1763"/>
	<text transform="matrix(1 0 0 1 37 240.0879)" display="inline"><tspan x="0" y="0" font-family="'NimbusSansRound-Regular'" font-size="270">RÄUM</tspan><tspan x="0" y="173" font-family="'NimbusSansRound-Regular'" font-size="270" letter-spacing="-31">		</tspan><tspan x="72" y="173" font-family="'NimbusSansRound-Regular'" font-size="270">LICH</tspan><tspan x="0" y="346" font-family="'NimbusSansRound-Regular'" font-size="270" letter-spacing="-31">	</tspan><tspan x="36" y="346" font-family="'NimbusSansRound-Regular'" font-size="270">KEIT</tspan><tspan x="0" y="519" font-family="'NimbusSansRound-Regular'" font-size="270" letter-spacing="-31">									</tspan><tspan x="324" y="519" font-family="'NimbusSansRound-Regular'" font-size="270">EN</tspan></text>
</g>
<g id="Salon">
	<rect x="46" y="60" fill="none" width="1164" height="1763"/>
	<text transform="matrix(1 0 0 1 46 240.0879)"><tspan x="0" y="0" fill="#FFFFFF" font-family="'NimbusSansRound-Regular'" font-size="270">S</tspan><tspan x="0" y="175" fill="#FFFFFF" font-family="'NimbusSansRound-Regular'" font-size="270" letter-spacing="-31">						</tspan><tspan x="216" y="175" fill="#FFFFFF" font-family="'NimbusSansRound-Regular'" font-size="270">AL</tspan><tspan x="0" y="350" fill="#FFFFFF" font-family="'NimbusSansRound-Regular'" font-size="270" letter-spacing="-31">		</tspan><tspan x="72" y="350" fill="#FFFFFF" font-family="'NimbusSansRound-Regular'" font-size="270">O</tspan><tspan x="266.396" y="350" fill="#FFFFFF" font-family="'NimbusSansRound-Regular'" font-size="270" letter-spacing="-45">	</tspan><tspan x="288" y="350" fill="#FFFFFF" font-family="'NimbusSansRound-Regular'" font-size="270" letter-spacing="-31">									</tspan><tspan x="0" y="525" fill="#FFFFFF" font-family="'NimbusSansRound-Regular'" font-size="270">N</tspan></text>
</g>
<g id="Ausstellung" display="none">
	<rect x="56" y="60" display="inline" fill="none" width="1164" height="1763"/>
	<text transform="matrix(1 0 0 1 55.9995 240.0879)" display="inline"><tspan x="0" y="0" font-family="'NimbusSansRound-Regular'" font-size="270">AUS</tspan><tspan x="0" y="169" font-family="'NimbusSansRound-Regular'" font-size="270" letter-spacing="-31">			</tspan><tspan x="108" y="169" font-family="'NimbusSansRound-Regular'" font-size="270">STEL</tspan><tspan x="0" y="338" font-family="'NimbusSansRound-Regular'" font-size="270" letter-spacing="-31">	</tspan><tspan x="36" y="338" font-family="'NimbusSansRound-Regular'" font-size="270">LU</tspan><tspan x="0" y="507" font-family="'NimbusSansRound-Regular'" font-size="270" letter-spacing="-31">								</tspan><tspan x="288" y="507" font-family="'NimbusSansRound-Regular'" font-size="270">NG</tspan></text>
	<rect x="95.606" y="862.077" display="inline" fill="none" width="494.975" height="353.982"/>
	<text transform="matrix(1 0 0 1 95.606 878.085)" display="inline"><tspan x="0" y="0" font-family="'NimbusSansRound-Regular'" font-size="24">Schriftgröße 27</tspan><tspan x="0" y="29" font-family="'NimbusSansRound-Regular'" font-size="24">Zeilenabstand 175</tspan></text>
</g>
</svg>
