<?xml version="1.0" encoding="utf-8"?>
<!-- Generator: Adobe Illustrator 19.1.0, SVG Export Plug-In . SVG Version: 6.00 Build 0)  -->
<svg version="1.1" id="Ebene_1" xmlns="http://www.w3.org/2000/svg" xmlns:xlink="http://www.w3.org/1999/xlink" x="0px" y="0px"
	 viewBox="-150 246 310.3 301" style="enable-background:new -150 246 310.3 301;" xml:space="preserve">
<style type="text/css">
	.st0{fill:#3C5154;}
</style>
<g>
	<path class="st0" d="M-111.9,266.3c-1.3-3.5-3.1-8.7-4.2-11.8c-1.2,3.3-3,8.5-4.2,11.4l-11.4,29.1h30.9L-111.9,266.3z
		 M-133.9,300.9l-8.2,21.1c-1.3,3.3-1.4,3.4-4.5,3.4c-2,0-3.4-0.9-3.4-2.4c0-0.9,0-1,0.8-3l27.8-69.1c1.4-3.4,1.3-3.4,5-3.4h0.9
		c3.7,0,3.7,0,5,3.4l27.4,69.1c0.9,2,0.9,2.1,0.9,2.9c0,1.3-1.4,2.4-2.9,2.4h-0.3c-3.7,0-3.7,0-5-3.5l-8.1-21h-35.4V300.9z"/>
	<path class="st0" d="M-11.5,294.3c0,11.3-1.2,16.4-5.2,22.1c-5.1,7.2-13.1,10.7-24.9,10.7c-12.5,0-21.5-4.4-26.4-12.9
		c-2.8-5-3.8-10.4-3.8-20.1v-41.8c0-3.7,0.6-4.5,3.3-4.5c3.6,0,4.1,0.6,4.1,4.5v42c0,19.1,6.6,26.7,23.3,26.7
		c16,0,22.3-7.6,22.3-26.8v-41.9c0-3.7,0.6-4.5,3.3-4.5c3.6,0,4.1,0.6,4.1,4.5v42H-11.5z"/>
	<path class="st0" d="M9.4,267.1c0,8.1,3.6,10.7,20.9,14.7c12.5,2.9,16.4,4.1,20.3,6.4c6,3.7,9.2,9.1,9.2,16.1
		c0,14.3-11.1,22.9-29.3,22.9c-11.7,0-21-3.8-26-10.9c-2.8-4-4.6-9.3-4.6-13.7c0-1.7,1.2-2.8,3.1-2.8c3.6,0,3.7,0.1,4.3,5.4
		C8.5,314.4,18,321,30.7,321c14.2,0,22.1-5.8,22.1-16.2c0-5.6-3-9.5-9.1-12.1c-3.4-1.4-6.2-2.2-17.1-4.8
		c-10.3-2.3-13.9-3.6-17.7-6.3c-4.3-2.9-6.7-8-6.7-14c0-13.3,10.2-21.6,27.1-21.6c10.9,0,19,3.5,23.9,10.2c2.1,3,3.9,8,3.9,10.9
		c0,2.2-1,3-3.7,3c-2.9,0-2.9,0-4.2-5.8c-1.5-7.2-9.9-12.2-20.6-12.2C16.6,252.2,9.4,257.8,9.4,267.1"/>
	<path class="st0" d="M-88.2,339.5c0,8.1,3.6,10.7,20.9,14.7c12.5,2.9,16.4,4.1,20.3,6.4c6,3.7,9.2,9.1,9.2,16.1
		c0,14.3-11.1,22.9-29.3,22.9c-11.7,0-21-3.8-26-10.9c-2.8-4-4.6-9.3-4.6-13.7c0-1.7,1.2-2.8,3.1-2.8c3.6,0,3.7,0.1,4.3,5.4
		c1.2,9.4,10.7,15.9,23.3,15.9c14.2,0,22.1-5.8,22.1-16.2c0-5.6-3-9.5-9.1-12.1c-3.4-1.4-6.2-2.2-17.1-4.8
		c-10.3-2.3-13.9-3.6-17.6-6.3c-4.3-2.9-6.7-8-6.7-14c0-13.4,10.2-21.7,27.1-21.7c10.9,0,19,3.5,23.9,10.2c2.1,3,3.9,8,3.9,10.9
		c0,2.2-1,3-3.7,3c-2.9,0-2.9,0-4.2-5.8c-1.5-7.2-9.9-12.2-20.6-12.2C-81,324.6-88.2,330.2-88.2,339.5"/>
	<path class="st0" d="M2.6,393.3c0,3.7-0.6,4.5-3.3,4.5c-3.6,0-4.1-0.6-4.1-4.5v-66.7h-22.8c-3.7,0-4.5-0.6-4.5-3.3
		c0-2.6,0.8-3.1,4.5-3.1h52.7c3.7,0,4.5,0.6,4.5,3.1c0,2.7-0.8,3.3-4.5,3.3H2.5v66.7H2.6z"/>
	<path class="st0" d="M49,354.4h38.9c3.7,0,4.5,0.6,4.5,3.1c0,2.7-0.8,3.3-4.5,3.3H49v30.6h42.3c3.7,0,4.5,0.6,4.5,3.1
		c0,2.7-0.8,3.3-4.5,3.3H46.2c-4.2,0-4.5-0.3-4.5-4.5v-68.6c0-4.2,0.3-4.5,4.5-4.5h44.6c3.7,0,4.5,0.6,4.5,3.1
		c0,2.7-0.8,3.3-4.5,3.3H49V354.4z"/>
	<path class="st0" d="M155.8,391.4c3.7,0,4.5,0.6,4.5,3.1c0,2.7-0.8,3.3-4.5,3.3H114c-4.2,0-4.5-0.3-4.5-4.5v-68.6
		c0-3.7,0.6-4.5,3.3-4.5c3.6,0,4.1,0.6,4.1,4.5v66.7H155.8z"/>
	<path class="st0" d="M-81.6,466.3c3.7,0,4.5,0.6,4.5,3.1c0,2.7-0.8,3.3-4.5,3.3h-41.8c-4.2,0-4.5-0.3-4.5-4.5v-68.6
		c0-3.7,0.6-4.5,3.3-4.5c3.6,0,4.1,0.6,4.1,4.5v66.7H-81.6z"/>
	<path class="st0" d="M-22.3,441.6c0,11.3-1.2,16.4-5.2,22.1c-5.1,7.2-13.1,10.7-24.8,10.7c-12.5,0-21.5-4.4-26.4-12.9
		c-2.8-5-3.8-10.4-3.8-20.1v-41.8c0-3.7,0.6-4.5,3.3-4.5c3.6,0,4.1,0.6,4.1,4.5v42c0,19.1,6.6,26.7,23.3,26.7
		c16,0,22.3-7.6,22.3-26.8v-41.9c0-3.7,0.6-4.5,3.3-4.5c3.6,0,4.1,0.6,4.1,4.5v42H-22.3z"/>
	<path class="st0" d="M-39.4,493.2c-0.6-0.8-1.5-2.2-4.4-6.9c-3.8-5.9-3.9-6.1-5.8-9.9c0.2,3.1,0.3,4.8,0.3,7.6v5.6l0.1,1.9v1.7v1.9
		v45.6c0,3.6-0.6,4.5-3.3,4.5c-3.4,0-3.8-0.6-3.8-4.5v-68.6c0-4,0.5-4.5,4.1-4.5h0.9c3.5,0,3,0,5,2.7l34.3,49.9
		c3.4,4.9,7.1,10.9,10.1,16.3c-0.2-5.4-0.5-15.2-0.5-20.5v-43.9c0-3.6,0.6-4.5,3.3-4.5c3.4,0,3.8,0.6,3.8,4.5v68.6
		c0,4-0.5,4.5-4.1,4.5h-0.9c-3.5,0-3.1,0-5.1-2.7L-39.4,493.2z"/>
	<path class="st0" d="M82.8,530.8C78,541.2,68.2,547,55.2,547c-21.4,0-36-16.3-36-40.2c0-24.1,15.1-41,36.5-41
		c12.9,0,22.6,5,28.6,14.7c2,3,3.3,6.5,3.3,8.4c0,1.7-1.3,2.7-3.7,2.7c-1.9,0-2.7-0.6-3.3-2.1c-4.1-11.6-12.1-17.2-24.7-17.2
		c-17.7,0-29.3,13.7-29.3,34.6c0,20.4,11.6,33.8,29.3,33.8c16.7,0,26.8-10.8,26.9-28.7H60.7c-3.6,0-4.5-0.6-4.5-3s0.9-3,4.5-3h24
		c4.2,0,4.5,0.3,4.5,4.5v30.4c0,3.4-0.7,4.5-2.6,4.5c-1.9,0-2.4-0.9-2.8-4.2L82.8,530.8z"/>
</g>
</svg>
