<?xml version="1.0" encoding="utf-8"?>
<!-- Generator: Adobe Illustrator 19.1.0, SVG Export Plug-In . SVG Version: 6.00 Build 0)  -->
<svg version="1.1" id="Ebene_1" xmlns="http://www.w3.org/2000/svg" xmlns:xlink="http://www.w3.org/1999/xlink" x="0px" y="0px"
	 viewBox="0 0 289.6 294.6" style="enable-background:new 0 0 289.6 294.6;" xml:space="preserve">
<style type="text/css">
	.st0{fill-rule:evenodd;clip-rule:evenodd;fill:#121212;}
	.st1{fill-rule:evenodd;clip-rule:evenodd;fill:#FFFFFF;}
	.st2{fill-rule:evenodd;clip-rule:evenodd;fill:#FCFCFC;}
	.st3{fill:#4B4B4B;}
	.st4{fill:#3C5154;}
	.st5{fill:#FFFFFF;}
</style>
<path class="st0" d="M331.9-88.8c15.6-0.1,31.3-0.2,46.9-0.2c3.9,0,8.9-1,8.8,5.4c0,5.6-4.4,5.1-8.1,5.1
	c-31.6,0.2-63.3,0.3-94.9,0.4c-3.9,0-8.1-0.1-8-5.4c0.1-5.3,4.5-5.1,8.3-5.1C300.7-88.7,316.3-88.7,331.9-88.8z"/>
<path class="st0" d="M337-83.3c0,15.6-0.1,31.3-0.2,46.9c0,3.9,0.9,8.9-5.4,8.8c-5.6-0.1-5-4.5-5-8.2c0.1-31.6,0.2-63.3,0.3-94.9
	c0-3.9,0.2-8.1,5.5-7.9c5.3,0.2,5,4.6,5,8.4C337.2-114.6,337.1-98.9,337-83.3z"/>
<path class="st0" d="M644.8-93.2c11.1,11,22.2,22,33.3,33.1c2.8,2.8,7,5.6,2.4,10c-4,3.9-6.7,0.5-9.4-2.2
	c-22.5-22.3-44.9-44.5-67.4-66.8c-2.8-2.7-5.7-5.8-1.8-9.5c3.8-3.6,6.8-0.4,9.5,2.3C622.6-115.2,633.7-104.2,644.8-93.2z"/>
<path class="st0" d="M644.6-85.7c-11.1,11-22.2,22.1-33.3,33.1c-2.8,2.8-5.6,6.9-10.1,2.4c-3.9-4-0.4-6.7,2.2-9.3
	c22.4-22.3,44.9-44.6,67.3-66.9c2.8-2.7,5.9-5.6,9.5-1.8c3.6,3.8,0.3,6.8-2.3,9.5C666.8-107.7,655.7-96.7,644.6-85.7z"/>
<path class="st1" d="M390.1-365.3c-10.2-10.4-20.3-20.9-30.5-31.3c-2.6-2.6-5.1-6.5-9.3-2.4c-3.7,3.7-0.5,6.3,1.9,8.7
	c20.5,21.1,41.1,42.2,61.6,63.3c2.5,2.6,5.4,5.3,8.8,1.8c3.4-3.5,0.4-6.3-2-8.9C410.5-344.4,400.3-354.8,390.1-365.3z"/>
<path class="st1" d="M390.1-291.1c-10.2,10.4-20.3,20.9-30.5,31.3c-2.6,2.6-5.1,6.5-9.3,2.4c-3.7-3.7-0.5-6.3,1.9-8.7
	c20.5-21.1,41.1-42.2,61.6-63.3c2.5-2.6,5.4-5.3,8.8-1.8c3.4,3.5,0.4,6.3-2,8.9C410.5-312,400.3-301.6,390.1-291.1z"/>
<path class="st1" d="M290.7-368.2c10.2-10.4,20.3-20.9,30.5-31.3c2.6-2.6,5.1-6.5,9.3-2.4c3.7,3.7,0.5,6.3-1.9,8.7
	c-20.5,21.1-41.1,42.2-61.6,63.3c-2.5,2.6-5.4,5.3-8.8,1.8c-3.4-3.5-0.4-6.3,2-8.9C270.3-347.3,280.5-357.8,290.7-368.2z"/>
<path class="st2" d="M290.7-294c10.2,10.4,20.3,20.9,30.5,31.3c2.6,2.6,5.1,6.5,9.3,2.4c3.7-3.7,0.5-6.3-1.9-8.7
	c-20.5-21.1-41.1-42.2-61.6-63.3c-2.5-2.6-5.4-5.3-8.8-1.8c-3.4,3.5-0.4,6.3,2,8.9C270.3-314.9,280.5-304.5,290.7-294z"/>
<path class="st0" d="M624.6-374.5c-10.4,10.2-20.9,20.3-31.3,30.5c-2.6,2.6-6.5,5.1-2.4,9.3c3.7,3.7,6.3,0.5,8.7-1.9
	c21.1-20.5,42.2-41.1,63.3-61.6c2.6-2.5,5.3-5.4,1.8-8.8c-3.5-3.4-6.3-0.4-8.9,2C645.5-394.8,635-384.7,624.6-374.5z"/>
<path class="st0" d="M698.7-374.5c10.4,10.2,20.9,20.3,31.3,30.5c2.6,2.6,6.5,5.1,2.4,9.3c-3.7,3.7-6.3,0.5-8.7-1.9
	c-21.1-20.5-42.2-41.1-63.3-61.6c-2.6-2.5-5.3-5.4-1.8-8.8c3.5-3.4,6.3-0.4,8.9,2C677.9-394.8,688.3-384.7,698.7-374.5z"/>
<path class="st0" d="M624.6-275c-10.4-10.2-20.9-20.3-31.3-30.5c-2.6-2.6-6.5-5.1-2.4-9.3c3.7-3.7,6.3-0.5,8.7,1.9
	c21.1,20.5,42.2,41.1,63.3,61.6c2.6,2.5,5.3,5.4,1.8,8.8c-3.5,3.4-6.3,0.4-8.9-2C645.5-254.7,635-264.9,624.6-275z"/>
<path class="st0" d="M698.7-275c10.4-10.2,20.9-20.3,31.3-30.5c2.6-2.6,6.5-5.1,2.4-9.3c-3.7-3.7-6.3-0.5-8.7,1.9
	c-21.1,20.5-42.2,41.1-63.3,61.6c-2.6,2.5-5.3,5.4-1.8,8.8c3.5,3.4,6.3,0.4,8.9-2C677.9-254.7,688.3-264.9,698.7-275z"/>
<path class="st0" d="M370.3-666.9c7.9,13.5,15.8,27,23.6,40.6c2,3.4,5.3,7.2-0.2,10.3c-4.9,2.8-6.6-1.3-8.5-4.5
	c-16-27.3-31.9-54.6-47.8-82c-2-3.4-4-7.1,0.7-9.6c4.6-2.5,6.7,1.4,8.6,4.6C354.6-693.9,362.5-680.4,370.3-666.9z"/>
<path class="st0" d="M319.6-661.6c-7.9,13.5-15.7,27.1-23.6,40.6c-2,3.4-3.7,8.1-9.1,4.9c-4.8-2.9-2.1-6.4-0.3-9.6
	c15.9-27.4,31.7-54.7,47.6-82.1c2-3.4,4.2-7,8.7-4.2c4.5,2.8,2.1,6.5,0.2,9.8C335.4-688.6,327.5-675.1,319.6-661.6z"/>
<path class="st0" d="M370.2-527.4c7.9-13.5,15.8-27,23.6-40.6c2-3.4,5.3-7.2-0.2-10.3c-4.9-2.8-6.6,1.3-8.5,4.5
	c-16,27.3-31.9,54.6-47.8,82c-2,3.4-4,7.1,0.7,9.6c4.6,2.5,6.7-1.4,8.6-4.6C354.4-500.4,362.3-513.9,370.2-527.4z"/>
<path class="st0" d="M319.5-532.7c-7.9-13.5-15.7-27.1-23.6-40.6c-2-3.4-3.7-8.1-9.1-4.9c-4.8,2.9-2.1,6.4-0.3,9.6
	c15.9,27.4,31.7,54.7,47.6,82.1c2,3.4,4.2,7,8.7,4.2c4.5-2.8,2.1-6.5,0.2-9.8C335.2-505.7,327.3-519.2,319.5-532.7z"/>
<path class="st0" d="M728.6-567.7c-13.5,7.9-27,15.8-40.6,23.6c-3.4,2-7.2,5.3-10.3-0.2c-2.8-4.9,1.3-6.6,4.5-8.5
	c27.3-16,54.6-31.9,82-47.8c3.4-2,7.1-4,9.6,0.7c2.5,4.6-1.4,6.7-4.6,8.6C755.7-583.4,742.2-575.6,728.6-567.7z"/>
<path class="st0" d="M723.3-618.4c-13.5-7.9-27.1-15.7-40.6-23.6c-3.4-2-8.1-3.7-4.9-9.1c2.9-4.8,6.4-2.1,9.6-0.3
	c27.4,15.9,54.7,31.7,82.1,47.6c3.4,2,7,4.2,4.2,8.7c-2.8,4.5-6.5,2.1-9.8,0.2C750.4-602.7,736.9-610.5,723.3-618.4z"/>
<path class="st0" d="M589.2-567.9c13.5,7.9,27,15.8,40.6,23.6c3.4,2,7.2,5.3,10.3-0.2c2.8-4.9-1.3-6.6-4.5-8.5
	c-27.3-16-54.6-31.9-82-47.8c-3.4-2-7.1-4-9.6,0.7c-2.5,4.6,1.4,6.7,4.6,8.6C562.1-583.6,575.7-575.7,589.2-567.9z"/>
<path class="st0" d="M594.5-618.6c13.5-7.9,27.1-15.7,40.6-23.6c3.4-2,8.1-3.7,4.9-9.1c-2.9-4.8-6.4-2.1-9.6-0.3
	c-27.4,15.9-54.7,31.7-82.1,47.6c-3.4,2-7,4.2-4.2,8.7c2.8,4.5,6.5,2.1,9.8,0.2C567.4-602.8,581-610.7,594.5-618.6z"/>
<path class="st1" d="M679.6,52.9c-10.2-10.4-20.3-20.9-30.5-31.3c-2.6-2.6-5.1-6.5-9.3-2.4c-3.7,3.7-0.5,6.3,1.9,8.7
	c20.5,21.1,41.1,42.2,61.6,63.3c2.5,2.6,5.4,5.3,8.8,1.8c3.4-3.5,0.4-6.3-2-8.9C699.9,73.8,689.8,63.3,679.6,52.9z"/>
<path class="st1" d="M679.6,127c-10.2,10.4-20.3,20.9-30.5,31.3c-2.6,2.6-5.1,6.5-9.3,2.4c-3.7-3.7-0.5-6.3,1.9-8.7
	c20.5-21.1,41.1-42.2,61.6-63.3c2.5-2.6,5.4-5.3,8.8-1.8c3.4,3.5,0.4,6.3-2,8.9C699.9,106.2,689.8,116.6,679.6,127z"/>
<path class="st1" d="M607.1,52.9c10.2-10.4,20.3-20.9,30.5-31.3c2.6-2.6,5.1-6.5,9.3-2.4c3.7,3.7,0.5,6.3-1.9,8.7
	c-20.5,21.1-41.1,42.2-61.6,63.3c-2.5,2.6-5.4,5.3-8.8,1.8c-3.4-3.5-0.4-6.3,2-8.9C586.8,73.8,597,63.3,607.1,52.9z"/>
<path class="st1" d="M607.1,127c10.2,10.4,20.3,20.9,30.5,31.3c2.6,2.6,5.1,6.5,9.3,2.4c3.7-3.7,0.5-6.3-1.9-8.7
	c-20.5-21.1-41.1-42.2-61.6-63.3c-2.5-2.6-5.4-5.3-8.8-1.8c-3.4,3.5-0.4,6.3,2,8.9C586.8,106.2,597,116.6,607.1,127z"/>
<g>
	<path class="st3" d="M-89.6-873.2c-1.3-3.5-3.1-8.7-4.2-11.8c-1.2,3.3-3,8.5-4.2,11.4l-11.4,29.1h30.9L-89.6-873.2z M-111.6-838.5
		l-8.2,21.1c-1.3,3.3-1.4,3.4-4.5,3.4c-2,0-3.4-0.9-3.4-2.4c0-0.8,0-0.9,0.8-2.9l27.8-69.1c1.4-3.4,1.3-3.4,5-3.4h0.9
		c3.7,0,3.7,0,5,3.4l27.4,69.1c0.9,2,0.9,2.1,0.9,2.9c0,1.3-1.4,2.4-2.9,2.4h-0.3c-3.7,0-3.7,0-5-3.5l-8.1-21H-111.6z"/>
	<path class="st3" d="M10.8-845.1c0,11.3-1.2,16.4-5.2,22.1c-5.1,7.2-13.1,10.7-24.9,10.7c-12.5,0-21.5-4.4-26.4-12.9
		c-2.8-5-3.8-10.4-3.8-20.1v-41.8c0-3.7,0.6-4.5,3.3-4.5c3.6,0,4.1,0.6,4.1,4.5v42c0,19.1,6.6,26.7,23.3,26.7
		c16,0,22.3-7.6,22.3-26.8v-41.9c0-3.7,0.6-4.5,3.3-4.5c3.6,0,4.1,0.6,4.1,4.5V-845.1z"/>
	<path class="st3" d="M31.7-872.4c0,8.1,3.6,10.7,20.9,14.7c12.5,2.9,16.4,4.1,20.3,6.4c6,3.7,9.2,9.1,9.2,16.1
		c0,14.3-11.1,22.9-29.3,22.9c-11.7,0-21-3.8-26-10.9c-2.8-4-4.6-9.3-4.6-13.7c0-1.7,1.2-2.8,3.1-2.8c3.6,0,3.7,0.1,4.3,5.4
		c1.2,9.4,10.7,15.9,23.3,15.9c14.2,0,22.1-5.8,22.1-16.2c0-5.6-3-9.5-9.1-12.1c-3.4-1.4-6.2-2.2-17.1-4.8
		c-10.3-2.3-13.9-3.6-17.7-6.3c-4.3-2.9-6.7-8-6.7-14c0-13.4,10.2-21.7,27.1-21.7c10.9,0,19,3.5,23.9,10.2c2.1,3,3.9,8,3.9,10.9
		c0,2.2-1,3-3.7,3c-2.9,0-2.9,0-4.2-5.8c-1.5-7.2-9.9-12.2-20.6-12.2C38.9-887.3,31.7-881.7,31.7-872.4"/>
	<path class="st3" d="M-65.9-800c0,8.1,3.6,10.7,20.9,14.7c12.5,2.9,16.4,4.1,20.3,6.4c6,3.7,9.2,9.1,9.2,16.1
		c0,14.3-11.1,22.9-29.3,22.9c-11.7,0-21-3.8-26-10.9c-2.8-4-4.6-9.3-4.6-13.7c0-1.7,1.2-2.8,3.1-2.8c3.6,0,3.7,0.1,4.3,5.4
		c1.2,9.4,10.7,15.9,23.3,15.9c14.2,0,22.1-5.8,22.1-16.2c0-5.6-3-9.5-9.1-12.1c-3.4-1.4-6.2-2.2-17.1-4.8
		c-10.3-2.3-13.9-3.6-17.6-6.3c-4.3-2.9-6.7-8-6.7-14c0-13.4,10.2-21.6,27.1-21.6c10.9,0,19,3.5,23.9,10.2c2.1,3,3.9,8,3.9,10.9
		c0,2.2-1,3-3.7,3c-2.9,0-2.9,0-4.2-5.8c-1.5-7.2-9.9-12.2-20.6-12.2C-58.7-814.8-65.9-809.3-65.9-800"/>
	<path class="st3" d="M24.9-746.2c0,3.7-0.6,4.5-3.3,4.5c-3.6,0-4.1-0.6-4.1-4.5v-66.7H-5.2c-3.7,0-4.5-0.6-4.5-3.3
		c0-2.6,0.8-3.1,4.5-3.1h52.7c3.7,0,4.5,0.6,4.5,3.1c0,2.7-0.8,3.3-4.5,3.3H24.9V-746.2z"/>
	<path class="st3" d="M71.3-785.1h38.9c3.7,0,4.5,0.6,4.5,3.1c0,2.7-0.8,3.3-4.5,3.3H71.3v30.6h42.3c3.7,0,4.5,0.6,4.5,3.1
		c0,2.7-0.8,3.3-4.5,3.3H68.5c-4.2,0-4.5-0.3-4.5-4.5v-68.6c0-4.2,0.3-4.5,4.5-4.5h44.6c3.7,0,4.5,0.6,4.5,3.1
		c0,2.7-0.8,3.3-4.5,3.3H71.3V-785.1z"/>
	<path class="st3" d="M178.1-748c3.7,0,4.5,0.6,4.5,3.1c0,2.7-0.8,3.3-4.5,3.3h-41.8c-4.2,0-4.5-0.3-4.5-4.5v-68.6
		c0-3.7,0.6-4.5,3.3-4.5c3.6,0,4.1,0.6,4.1,4.5v66.7H178.1z"/>
	<path class="st3" d="M-59.2-673.2c3.7,0,4.5,0.6,4.5,3.1c0,2.7-0.8,3.3-4.5,3.3H-101c-4.2,0-4.5-0.3-4.5-4.5v-68.6
		c0-3.7,0.6-4.5,3.3-4.5c3.6,0,4.1,0.6,4.1,4.5v66.7H-59.2z"/>
	<path class="st3" d="M0-697.9c0,11.3-1.2,16.4-5.2,22.1c-5.1,7.2-13.1,10.7-24.8,10.7c-12.5,0-21.5-4.4-26.4-12.9
		c-2.8-5-3.8-10.4-3.8-20.1v-41.8c0-3.7,0.6-4.5,3.3-4.5c3.6,0,4.1,0.6,4.1,4.5v42c0,19.1,6.6,26.7,23.3,26.7
		c16,0,22.3-7.6,22.3-26.8v-41.9c0-3.7,0.6-4.5,3.3-4.5c3.6,0,4.1,0.6,4.1,4.5V-697.9z"/>
	<path class="st3" d="M-17.1-646.2c-0.6-0.8-1.5-2.2-4.4-6.9c-3.8-5.9-3.9-6.1-5.8-9.9c0.2,3.1,0.3,4.8,0.3,7.6v5.6l0.1,1.9v1.7v1.9
		v45.6c0,3.6-0.6,4.5-3.3,4.5c-3.4,0-3.8-0.6-3.8-4.5v-68.6c0-4,0.5-4.5,4.1-4.5h0.9c3.5,0,3,0,5,2.7l34.3,49.9
		c3.4,4.9,7.1,10.9,10.1,16.3c-0.2-5.4-0.5-15.2-0.5-20.5v-43.9c0-3.6,0.6-4.5,3.3-4.5c3.4,0,3.8,0.6,3.8,4.5v68.6
		c0,4-0.5,4.5-4.1,4.5H22c-3.5,0-3.1,0-5.1-2.7L-17.1-646.2z"/>
	<path class="st3" d="M105.1-608.6c-4.8,10.4-14.6,16.2-27.6,16.2c-21.4,0-36-16.3-36-40.2c0-24.1,15.1-41,36.5-41
		c12.9,0,22.6,5,28.6,14.7c2,3,3.3,6.5,3.3,8.4c0,1.7-1.3,2.7-3.7,2.7c-1.9,0-2.7-0.6-3.3-2.1c-4.1-11.6-12.1-17.2-24.7-17.2
		c-17.7,0-29.3,13.7-29.3,34.6c0,20.4,11.6,33.8,29.3,33.8c16.7,0,26.8-10.8,26.9-28.7H83c-3.6,0-4.5-0.6-4.5-3c0-2.4,0.9-3,4.5-3
		h24c4.2,0,4.5,0.3,4.5,4.5v30.4c0,3.4-0.7,4.5-2.6,4.5c-1.9,0-2.4-0.9-2.8-4.2L105.1-608.6z"/>
</g>
<g>
	<path class="st4" d="M-15.4-333c1.5,1.9,1.8,2.3,1.8,3.4c0,1.6-1.6,2.7-3.9,2.7c-2,0-2.9-0.4-4-1.8c-0.1-0.2-0.4-0.6-0.7-0.9
		l-30.6-38.6l-15,13.6v22.9c0,3.7-0.6,4.6-3.3,4.6c-3.6,0-4.1-0.6-4.1-4.6v-68.9c0-3.7,0.6-4.6,3.3-4.6c3.6,0,4.1,0.6,4.1,4.6v37.4
		c3-2.9,4.1-4,5.1-4.9l38.1-35.1c0.5-0.5,0.7-0.7,0.9-0.8c1.1-1.1,1.6-1.3,3.2-1.3c2.1,0,3.6,1.2,3.6,2.7c0,1.1-0.5,1.8-2.2,3.4
		l-28.5,25.8L-15.4-333z"/>
	<path class="st4" d="M29.4-386.5c-1.3-3.5-3.2-8.8-4.2-11.8c-1.2,3.3-3,8.5-4.2,11.5L9.6-357.7h31.1L29.4-386.5z M7.3-351.7
		L-1-330.5c-1.3,3.3-1.4,3.4-4.6,3.4c-2,0-3.4-0.9-3.4-2.5c0-0.8,0-0.9,0.8-2.9l28-69.5c1.4-3.4,1.3-3.4,5-3.4h0.9
		c3.7,0,3.7,0,5,3.4l27.6,69.5c0.9,2,0.9,2.1,0.9,2.9c0,1.3-1.4,2.5-2.9,2.5h-0.4c-3.7,0-3.7,0-5-3.5l-8.2-21.1H7.3z"/>
	<path class="st4" d="M-48-257.9c3.7,0,4.6,0.6,4.6,3.2c0,2.7-0.8,3.3-4.6,3.3h-42.1c-4.2,0-4.6-0.4-4.6-4.6v-68.9
		c0-3.7,0.6-4.6,3.3-4.6c3.6,0,4.1,0.6,4.1,4.6v67H-48z"/>
	<path class="st4" d="M-29.9-295H9.3c3.7,0,4.6,0.6,4.6,3.2c0,2.7-0.8,3.3-4.6,3.3h-39.2v30.8h42.6c3.7,0,4.6,0.6,4.6,3.2
		c0,2.7-0.8,3.3-4.6,3.3h-45.4c-4.2,0-4.6-0.4-4.6-4.6v-68.9c0-4.2,0.3-4.6,4.6-4.6h44.9c3.7,0,4.6,0.6,4.6,3.2
		c0,2.7-0.8,3.3-4.6,3.3h-42.1V-295z"/>
	<path class="st4" d="M48.2-303.7c-0.6-0.8-1.5-2.2-4.4-6.9c-3.9-6-4-6.1-5.8-9.9c0.2,3.2,0.4,4.8,0.4,7.6v5.6l0.1,1.9v1.8v1.9v45.9
		c0,3.6-0.6,4.6-3.3,4.6c-3.4,0-3.9-0.6-3.9-4.6v-68.9c0-4,0.5-4.6,4.1-4.6h0.9c3.5,0,3,0,5,2.7l34.5,50.2c3.4,4.9,7.1,11,10.2,16.4
		c-0.2-5.4-0.5-15.3-0.5-20.6v-44.1c0-3.6,0.6-4.6,3.3-4.6c3.4,0,3.9,0.6,3.9,4.6v68.9c0,4-0.5,4.6-4.1,4.6h-0.9
		c-3.5,0-3.2,0-5.1-2.7L48.2-303.7z"/>
	<path class="st4" d="M-26.6-181.9H-8c11,0,16.5-1.9,21.4-7.1c5.7-6.1,8.3-14.5,8.3-26.4c0-20.7-9.8-31.6-28.5-31.6h-19.8V-181.9z
		 M-6.8-253.4c11.2,0,18.5,2.3,24.7,7.8c7.3,6.7,11.2,17.2,11.2,29.7c0,13.8-3.7,24.4-11,31.8c-6.2,6.3-12.9,8.7-24.3,8.7h-23.2
		c-4.2,0-4.6-0.4-4.6-4.6v-68.9c0-4.2,0.4-4.6,4.6-4.6H-6.8z"/>
	<path class="st4" d="M47.3-219.1h39.2c3.7,0,4.6,0.6,4.6,3.2c0,2.7-0.8,3.3-4.6,3.3H47.3v30.8h42.6c3.7,0,4.6,0.6,4.6,3.2
		c0,2.7-0.8,3.3-4.6,3.3H44.5c-4.2,0-4.6-0.4-4.6-4.6v-68.9c0-4.2,0.4-4.6,4.6-4.6h44.9c3.7,0,4.6,0.6,4.6,3.2
		c0,2.7-0.8,3.3-4.6,3.3H47.3V-219.1z"/>
	<path class="st4" d="M111.9-216.3h22c16.1,0,22.8-4.6,22.8-15.7c0-10.3-6.4-15.1-20.2-15.1h-24.6V-216.3z M138.8-253.4
		c16.5,0,25.3,7.4,25.3,21.1c0,9.9-5.5,17-15.2,19.3c5,0.8,7.6,2.2,10.1,5.4c1.8,2.3,2.7,4.7,3.2,8.4c0.2,1.6,0.2,2.1,0.6,6.1
		l0.1,2.2l0.2,2.3c0.5,6.7,0.7,8.2,1.8,10.9c0.1,0.4,0.2,0.7,0.2,0.8c0,0.9-0.7,1.5-1.9,1.5h-1.6c-4.8,0-5.1-0.7-5.6-10.8
		c-0.6-13.1-1.4-16.3-4.8-19.9c-2.8-3-7.6-4.2-16.3-4.2h-22.9v30.3c0,3.7-0.6,4.6-3.3,4.6c-3.6,0-4.1-0.6-4.1-4.6v-68.9
		c0-4.2,0.4-4.6,4.6-4.6H138.8z"/>
</g>
<g>
	<path class="st5" d="M7,51.4h20.8c15.3,0,21.6-4,21.6-13.9c0-9.1-6.1-13.4-19.2-13.4H7V51.4z M32.5,18.1c15.6,0,23.9,7,23.9,19.9
		c0,9.4-5.2,16.1-14.4,18.3c4.8,0.8,7.2,2.1,9.5,5.1c1.7,2.2,2.5,4.4,3,8c0.2,1.6,0.2,2,0.6,5.8l0.1,2.1l0.2,2.2
		c0.4,6.3,0.7,7.8,1.7,10.3c0.1,0.3,0.2,0.7,0.2,0.8c0,0.9-0.7,1.4-1.8,1.4H54c-4.5,0-4.9-0.7-5.3-10.2c-0.6-12.4-1.3-15.4-4.5-18.8
		c-2.7-2.9-7.2-4-15.4-4H7v28.7C7,91.2,6.4,92,3.9,92C0.4,92,0,91.4,0,87.6V22.4c0-4,0.3-4.3,4.3-4.3H32.5z"/>
	<path class="st5" d="M110.9,7.6c0,1.9-0.8,2.7-2.7,2.7h-1.7c-1.9,0-2.7-0.8-2.7-2.7v-5c0-1.9,0.8-2.7,2.7-2.7h1.7
		c1.9,0,2.7,0.8,2.7,2.7V7.6z M88.5,7.6c0,1.9-0.8,2.7-2.7,2.7h-1.7c-1.9,0-2.7-0.8-2.7-2.7v-5c0-1.9,0.8-2.7,2.7-2.7h1.7
		c1.9,0,2.7,0.8,2.7,2.7V7.6z M100.3,35.7c-1.2-3.3-3-8.3-4-11.2c-1.1,3.1-2.9,8.1-4,10.9L81.4,63h29.5L100.3,35.7z M79.3,68.7
		l-7.9,20.1c-1.2,3.1-1.3,3.2-4.3,3.2c-1.9,0-3.2-0.9-3.2-2.3c0-0.8,0-0.9,0.8-2.8l26.5-65.8c1.3-3.2,1.2-3.2,4.8-3.2h0.9
		c3.5,0,3.5,0,4.8,3.2l26.1,65.8c0.9,1.9,0.9,2,0.9,2.8c0,1.2-1.3,2.3-2.8,2.3h-0.3c-3.5,0-3.5,0-4.8-3.3L113,68.7H79.3z"/>
	<path class="st5" d="M186.8,62.4c0,10.7-1.1,15.6-5,21c-4.9,6.9-12.5,10.2-23.7,10.2c-12,0-20.5-4.2-25.1-12.3
		c-2.7-4.8-3.7-9.9-3.7-19.2V22.4c0-3.5,0.6-4.3,3.1-4.3c3.4,0,3.9,0.6,3.9,4.3v40c0,18.2,6.3,25.4,22.3,25.4
		c15.3,0,21.3-7.2,21.3-25.5V22.4c0-3.5,0.6-4.3,3.1-4.3c3.4,0,3.9,0.6,3.9,4.3V62.4z"/>
	<path class="st5" d="M264.6,24.7c-0.7,2-0.3,1.1-0.9,2.7c-2.4,6.8-3.1,8.6-3.8,10.1l-20.4,51.3c-1.2,3-1.6,3.2-3.8,3.2
		c-3.8,0-3.9-0.1-5.2-3.2l-20.8-50.6c-1.2-3-3.1-8.3-4.9-13.6c0.6,9.2,0.8,17.2,0.8,22.6v40.5c0,3.4-0.6,4.3-3.1,4.3
		c-3.2,0-3.7-0.6-3.7-4.3V22.4c0-4,0.3-4.3,4.3-4.3h1.9c3.5,0,3.4,0,4.8,3.2L230,70.8c0.3,0.8,1.3,3.4,3.1,8.2
		c0.8,2.1,1,2.8,1.9,5.6c1.6-4.5,4-11.1,5-13.7l19.7-49.6c0.2-0.4,0.4-0.9,0.4-1c0.8-2,1.1-2.2,4.3-2.2h2c4,0,4.3,0.3,4.3,4.3v65.3
		c0,3.4-0.6,4.3-3.1,4.3c-3.2,0-3.7-0.6-3.7-4.3V47.3c0-1.9,0-3.7,0.2-9.3c0.1-8.8,0.2-9,0.7-14L264.6,24.7z"/>
	<path class="st5" d="M108.3,153.1c3.5,0,4.3,0.6,4.3,3c0,2.5-0.8,3.1-4.3,3.1H68.4c-4,0-4.3-0.3-4.3-4.3V89.7
		c0-3.5,0.6-4.3,3.1-4.3c3.4,0,3.9,0.6,3.9,4.3v63.5H108.3z"/>
	<path class="st5" d="M143.6,152c0,3.5-0.6,4.3-3.1,4.3c-3.4,0-3.9-0.6-3.9-4.3V86.7c0-3.5,0.6-4.3,3.1-4.3c3.4,0,3.9,0.6,3.9,4.3
		V152z"/>
	<path class="st5" d="M209.7,92.6c3,3.4,6,9.1,6,11.5c0,1.9-1.2,2.7-3.7,2.7c-2.8,0-2.8-0.2-4.8-5.6c-0.9-2.5-4.4-6.4-7.8-8.5
		c-3.9-2.4-8.5-3.7-13.7-3.7c-16.5,0-27.3,13.1-27.3,32.9c0,19.2,10.7,30.4,26.8,30.4c13.5,0,22.1-5.9,24.5-19.9
		c0.2-1.3,1.3-2.1,3-2.1c2.9,0,3.9,0.8,3.9,2.7c0,4.2-3.3,12-7,16.5c-6,7.2-14,9.2-24.4,9.2c-20.2,0-33.8-13.8-33.8-36.7
		c0-23.3,13.8-39,34.3-39C196,82.8,203.9,86.1,209.7,92.6"/>
	<path class="st5" d="M238.3,122.7v31.4c0,3.5-0.6,4.3-3.1,4.3c-3.4,0-3.9-0.6-3.9-4.3V88.8c0-3.5,0.6-4.3,3.1-4.3
		c3.4,0,3.9,0.6,3.9,4.3v27.8h44.3V88.8c0-3.5,0.6-4.3,3.1-4.3c3.4,0,3.9,0.6,3.9,4.3v65.3c0,3.5-0.6,4.3-3.1,4.3
		c-3.4,0-3.9-0.6-3.9-4.3v-31.4H238.3z"/>
	<path class="st5" d="M71.3,221c1.4,1.8,1.7,2.2,1.7,3.2c0,1.6-1.6,2.5-3.7,2.5c-1.9,0-2.8-0.3-3.8-1.7c-0.1-0.2-0.3-0.6-0.7-0.9
		l-29-36.6l-14.2,12.9v21.7c0,3.5-0.6,4.3-3.1,4.3c-3.4,0-3.9-0.6-3.9-4.3V157c0-3.5,0.6-4.3,3.1-4.3c3.4,0,3.9,0.6,3.9,4.3v35.5
		c2.9-2.8,3.9-3.8,4.9-4.7l36.1-33.2c0.4-0.4,0.7-0.7,0.9-0.8c1-1,1.6-1.2,3-1.2c2,0,3.4,1.1,3.4,2.5c0,1-0.4,1.7-2.1,3.2l-27,24.5
		L71.3,221z"/>
	<path class="st5" d="M90.5,185.9h37.1c3.5,0,4.3,0.6,4.3,3c0,2.5-0.8,3.1-4.3,3.1H90.5v29.1h40.3c3.5,0,4.3,0.6,4.3,3
		c0,2.5-0.8,3.1-4.3,3.1h-43c-4,0-4.3-0.3-4.3-4.3v-65.3c0-4,0.3-4.3,4.3-4.3h42.5c3.5,0,4.3,0.6,4.3,3c0,2.5-0.8,3.1-4.3,3.1H90.5
		V185.9z"/>
	<path class="st5" d="M143.6,191.8c0,3.5-0.6,4.3-3.1,4.3c-3.4,0-3.9-0.6-3.9-4.3v-65.3c0-3.5,0.6-4.3,3.1-4.3
		c3.4,0,3.9,0.6,3.9,4.3V191.8z"/>
	<path class="st5" d="M188.2,222.2c0,3.5-0.6,4.3-3.1,4.3c-3.4,0-3.9-0.6-3.9-4.3v-63.5h-21.7c-3.5,0-4.3-0.6-4.3-3.1
		c0-2.4,0.8-3,4.3-3h50.3c3.5,0,4.3,0.6,4.3,3c0,2.5-0.8,3.1-4.3,3.1h-21.6V222.2z"/>
	<path class="st5" d="M156.2,253.2h37.1c3.5,0,4.3,0.6,4.3,3c0,2.5-0.8,3.1-4.3,3.1h-37.1v29.1h40.3c3.5,0,4.3,0.6,4.3,3
		c0,2.5-0.8,3.1-4.3,3.1h-43c-4,0-4.3-0.3-4.3-4.3V225c0-4,0.3-4.3,4.3-4.3h42.5c3.5,0,4.3,0.6,4.3,3c0,2.5-0.8,3.1-4.3,3.1h-39.9
		V253.2z"/>
	<path class="st5" d="M223.8,245c-0.6-0.8-1.4-2.1-4.2-6.5c-3.7-5.7-3.8-5.8-5.5-9.4c0.2,3,0.3,4.5,0.3,7.2v5.3l0.1,1.8v1.7v1.8
		v43.4c0,3.4-0.6,4.3-3.1,4.3c-3.2,0-3.7-0.6-3.7-4.3V225c0-3.8,0.4-4.3,3.9-4.3h0.9c3.3,0,2.9,0,4.8,2.5l32.7,47.5
		c3.2,4.7,6.8,10.4,9.6,15.5c-0.2-5.1-0.4-14.5-0.4-19.5V225c0-3.4,0.6-4.3,3.1-4.3c3.2,0,3.7,0.6,3.7,4.3v65.3
		c0,3.8-0.4,4.3-3.9,4.3h-0.9c-3.3,0-3,0-4.9-2.5L223.8,245z"/>
</g>
</svg>
