<?xml version="1.0" encoding="utf-8"?>
<!-- Generator: Adobe Illustrator 19.1.0, SVG Export Plug-In . SVG Version: 6.00 Build 0)  -->
<svg version="1.1" id="Ebene_1" xmlns="http://www.w3.org/2000/svg" xmlns:xlink="http://www.w3.org/1999/xlink" x="0px" y="0px"
	 viewBox="0 0 259.7 229.9" style="enable-background:new 0 0 259.7 229.9;" xml:space="preserve">
<style type="text/css">
	.st0{fill-rule:evenodd;clip-rule:evenodd;fill:#121212;}
	.st1{fill-rule:evenodd;clip-rule:evenodd;fill:#FFFFFF;}
	.st2{fill-rule:evenodd;clip-rule:evenodd;fill:#FCFCFC;}
	.st3{fill:#FFFFFF;}
	.st4{fill:#3C5154;}
</style>
<path class="st0" d="M426.6,316.6c15.6-0.1,31.3-0.2,46.9-0.2c3.9,0,8.9-1,8.8,5.4c0,5.6-4.4,5.1-8.1,5.1
	c-31.6,0.2-63.3,0.3-94.9,0.4c-3.9,0-8.1-0.1-8-5.4c0.1-5.3,4.5-5.1,8.3-5.1C395.3,316.7,411,316.7,426.6,316.6z"/>
<path class="st0" d="M431.7,322.1c0,15.6-0.1,31.3-0.2,46.9c0,3.9,0.9,8.9-5.4,8.8c-5.6-0.1-5-4.5-5-8.2c0.1-31.6,0.2-63.3,0.3-94.9
	c0-3.9,0.2-8.1,5.5-7.9c5.3,0.2,5,4.6,5,8.4C431.9,290.8,431.8,306.5,431.7,322.1z"/>
<path class="st0" d="M739.5,312.2c11.1,11,22.2,22,33.3,33.1c2.8,2.8,7,5.6,2.4,10c-4,3.9-6.7,0.5-9.4-2.2
	c-22.5-22.3-44.9-44.5-67.4-66.8c-2.8-2.7-5.7-5.8-1.8-9.5c3.8-3.6,6.8-0.4,9.5,2.3C717.3,290.1,728.4,301.2,739.5,312.2z"/>
<path class="st0" d="M739.3,319.7c-11.1,11-22.2,22.1-33.3,33.1c-2.8,2.8-5.6,6.9-10.1,2.4c-3.9-4-0.4-6.7,2.2-9.3
	c22.4-22.3,44.9-44.6,67.3-66.9c2.8-2.7,5.9-5.6,9.5-1.8c3.6,3.8,0.3,6.8-2.3,9.5C761.5,297.6,750.4,308.7,739.3,319.7z"/>
<path class="st1" d="M484.8,40.1c-10.2-10.4-20.3-20.9-30.5-31.3c-2.6-2.6-5.1-6.5-9.3-2.4c-3.7,3.7-0.5,6.3,1.9,8.7
	c20.5,21.1,41.1,42.2,61.6,63.3c2.5,2.6,5.4,5.3,8.8,1.8c3.4-3.5,0.4-6.3-2-8.9C505.2,61,495,50.5,484.8,40.1z"/>
<path class="st1" d="M484.8,114.2c-10.2,10.4-20.3,20.9-30.5,31.3c-2.6,2.6-5.1,6.5-9.3,2.4c-3.7-3.7-0.5-6.3,1.9-8.7
	c20.5-21.1,41.1-42.2,61.6-63.3c2.5-2.6,5.4-5.3,8.8-1.8c3.4,3.5,0.4,6.3-2,8.9C505.2,93.4,495,103.8,484.8,114.2z"/>
<path class="st1" d="M385.4,37.2c10.2-10.4,20.3-20.9,30.5-31.3c2.6-2.6,5.1-6.5,9.3-2.4c3.7,3.7,0.5,6.3-1.9,8.7
	c-20.5,21.1-41.1,42.2-61.6,63.3c-2.5,2.6-5.4,5.3-8.8,1.8c-3.4-3.5-0.4-6.3,2-8.9C365,58.1,375.2,47.6,385.4,37.2z"/>
<path class="st2" d="M385.4,111.3c10.2,10.4,20.3,20.9,30.5,31.3c2.6,2.6,5.1,6.5,9.3,2.4c3.7-3.7,0.5-6.3-1.9-8.7
	c-20.5-21.1-41.1-42.2-61.6-63.3c-2.5-2.6-5.4-5.3-8.8-1.8c-3.4,3.5-0.4,6.3,2,8.9C365,90.5,375.2,100.9,385.4,111.3z"/>
<path class="st0" d="M719.3,30.9C708.9,41,698.4,51.2,688,61.4c-2.6,2.6-6.5,5.1-2.4,9.3c3.7,3.7,6.3,0.5,8.7-1.9
	c21.1-20.5,42.2-41.1,63.3-61.6c2.6-2.5,5.3-5.4,1.8-8.8c-3.5-3.4-6.3-0.4-8.9,2C740.2,10.5,729.7,20.7,719.3,30.9z"/>
<path class="st0" d="M793.4,30.9c10.4,10.2,20.9,20.3,31.3,30.5c2.6,2.6,6.5,5.1,2.4,9.3c-3.7,3.7-6.3,0.5-8.7-1.9
	C797.2,48.3,776.1,27.7,755,7.2c-2.6-2.5-5.3-5.4-1.8-8.8c3.5-3.4,6.3-0.4,8.9,2C772.6,10.5,783,20.7,793.4,30.9z"/>
<path class="st0" d="M719.3,130.3c-10.4-10.2-20.9-20.3-31.3-30.5c-2.6-2.6-6.5-5.1-2.4-9.3c3.7-3.7,6.3-0.5,8.7,1.9
	c21.1,20.5,42.2,41.1,63.3,61.6c2.6,2.5,5.3,5.4,1.8,8.8c-3.5,3.4-6.3,0.4-8.9-2C740.2,150.7,729.7,140.5,719.3,130.3z"/>
<path class="st0" d="M793.4,130.3c10.4-10.2,20.9-20.3,31.3-30.5c2.6-2.6,6.5-5.1,2.4-9.3c-3.7-3.7-6.3-0.5-8.7,1.9
	c-21.1,20.5-42.2,41.1-63.3,61.6c-2.6,2.5-5.3,5.4-1.8,8.8c3.5,3.4,6.3,0.4,8.9-2C772.6,150.7,783,140.5,793.4,130.3z"/>
<path class="st0" d="M465-261.5c7.9,13.5,15.8,27,23.6,40.6c2,3.4,5.3,7.2-0.2,10.3c-4.9,2.8-6.6-1.3-8.5-4.5
	c-16-27.3-31.9-54.6-47.8-82c-2-3.4-4-7.1,0.7-9.6c4.6-2.5,6.7,1.4,8.6,4.6C449.3-288.5,457.1-275,465-261.5z"/>
<path class="st0" d="M414.3-256.2c-7.9,13.5-15.7,27.1-23.6,40.6c-2,3.4-3.7,8.1-9.1,4.9c-4.8-2.9-2.1-6.4-0.3-9.6
	c15.9-27.4,31.7-54.7,47.6-82.1c2-3.4,4.2-7,8.7-4.2c4.5,2.8,2.1,6.5,0.2,9.8C430.1-283.2,422.2-269.7,414.3-256.2z"/>
<path class="st0" d="M464.9-122c7.9-13.5,15.8-27,23.6-40.6c2-3.4,5.3-7.2-0.2-10.3c-4.9-2.8-6.6,1.3-8.5,4.5
	c-16,27.3-31.9,54.6-47.8,82c-2,3.4-4,7.1,0.7,9.6c4.6,2.5,6.7-1.4,8.6-4.6C449.1-95,457-108.5,464.9-122z"/>
<path class="st0" d="M414.2-127.4c-7.9-13.5-15.7-27.1-23.6-40.6c-2-3.4-3.7-8.1-9.1-4.9c-4.8,2.9-2.1,6.4-0.3,9.6
	c15.9,27.4,31.7,54.7,47.6,82.1c2,3.4,4.2,7,8.7,4.2c4.5-2.8,2.1-6.5,0.2-9.8C429.9-100.3,422-113.8,414.2-127.4z"/>
<path class="st0" d="M823.3-162.3c-13.5,7.9-27,15.8-40.6,23.6c-3.4,2-7.2,5.3-10.3-0.2c-2.8-4.9,1.3-6.6,4.5-8.5
	c27.3-16,54.6-31.9,82-47.8c3.4-2,7.1-4,9.6,0.7c2.5,4.6-1.4,6.7-4.6,8.6C850.4-178.1,836.9-170.2,823.3-162.3z"/>
<path class="st0" d="M818-213c-13.5-7.9-27.1-15.7-40.6-23.6c-3.4-2-8.1-3.7-4.9-9.1c2.9-4.8,6.4-2.1,9.6-0.3
	c27.4,15.9,54.7,31.7,82.1,47.6c3.4,2,7,4.2,4.2,8.7c-2.8,4.5-6.5,2.1-9.8,0.2C845.1-197.3,831.6-205.1,818-213z"/>
<path class="st0" d="M683.9-162.5c13.5,7.9,27,15.8,40.6,23.6c3.4,2,7.2,5.3,10.3-0.2c2.8-4.9-1.3-6.6-4.5-8.5
	c-27.3-16-54.6-31.9-82-47.8c-3.4-2-7.1-4-9.6,0.7c-2.5,4.6,1.4,6.7,4.6,8.6C656.8-178.2,670.4-170.4,683.9-162.5z"/>
<path class="st0" d="M689.2-213.2c13.5-7.9,27.1-15.7,40.6-23.6c3.4-2,8.1-3.7,4.9-9.1c-2.9-4.8-6.4-2.1-9.6-0.3
	c-27.4,15.9-54.7,31.7-82.1,47.6c-3.4,2-7,4.2-4.2,8.7c2.8,4.5,6.5,2.1,9.8,0.2C662.1-197.5,675.7-205.3,689.2-213.2z"/>
<path class="st1" d="M774.3,458.3c-10.2-10.4-20.3-20.9-30.5-31.3c-2.6-2.6-5.1-6.5-9.3-2.4c-3.7,3.7-0.5,6.3,1.9,8.7
	c20.5,21.1,41.1,42.2,61.6,63.3c2.5,2.6,5.4,5.3,8.8,1.8c3.4-3.5,0.4-6.3-2-8.9C794.6,479.1,784.5,468.7,774.3,458.3z"/>
<path class="st1" d="M774.3,532.4c-10.2,10.4-20.3,20.9-30.5,31.3c-2.6,2.6-5.1,6.5-9.3,2.4c-3.7-3.7-0.5-6.3,1.9-8.7
	c20.5-21.1,41.1-42.2,61.6-63.3c2.5-2.6,5.4-5.3,8.8-1.8c3.4,3.5,0.4,6.3-2,8.9C794.6,511.6,784.5,522,774.3,532.4z"/>
<path class="st1" d="M701.8,458.3c10.2-10.4,20.3-20.9,30.5-31.3c2.6-2.6,5.1-6.5,9.3-2.4c3.7,3.7,0.5,6.3-1.9,8.7
	c-20.5,21.1-41.1,42.2-61.6,63.3c-2.5,2.6-5.4,5.3-8.8,1.8c-3.4-3.5-0.4-6.3,2-8.9C681.5,479.1,691.7,468.7,701.8,458.3z"/>
<path class="st1" d="M701.8,532.4c10.2,10.4,20.3,20.9,30.5,31.3c2.6,2.6,5.1,6.5,9.3,2.4c3.7-3.7,0.5-6.3-1.9-8.7
	c-20.5-21.1-41.1-42.2-61.6-63.3c-2.5-2.6-5.4-5.3-8.8-1.8c-3.4,3.5-0.4,6.3,2,8.9C681.5,511.6,691.7,522,701.8,532.4z"/>
<g>
	<path class="st3" d="M5.1-467.8c-1.3-3.5-3.1-8.7-4.2-11.8c-1.2,3.3-3,8.5-4.2,11.4l-11.4,29.1h30.9L5.1-467.8z M-16.9-433.1
		l-8.2,21.1c-1.3,3.3-1.4,3.4-4.5,3.4c-2,0-3.4-0.9-3.4-2.4c0-0.8,0-0.9,0.8-2.9l27.8-69.1c1.4-3.4,1.3-3.4,5-3.4h0.9
		c3.7,0,3.7,0,5,3.4L33.9-414c0.9,2,0.9,2.1,0.9,2.9c0,1.3-1.4,2.4-2.9,2.4h-0.3c-3.7,0-3.7,0-5-3.5l-8.1-21H-16.9z"/>
	<path class="st3" d="M105.5-439.8c0,11.3-1.2,16.4-5.2,22.1c-5.1,7.2-13.1,10.7-24.9,10.7c-12.5,0-21.5-4.4-26.4-12.9
		c-2.8-5-3.8-10.4-3.8-20.1v-41.8c0-3.7,0.6-4.5,3.3-4.5c3.6,0,4.1,0.6,4.1,4.5v42c0,19.1,6.6,26.7,23.3,26.7
		c16,0,22.3-7.6,22.3-26.8v-41.9c0-3.7,0.6-4.5,3.3-4.5c3.6,0,4.1,0.6,4.1,4.5V-439.8z"/>
	<path class="st3" d="M126.4-467c0,8.1,3.6,10.7,20.9,14.7c12.5,2.9,16.4,4.1,20.3,6.4c6,3.7,9.2,9.1,9.2,16.1
		c0,14.3-11.1,22.9-29.3,22.9c-11.7,0-21-3.8-26-10.9c-2.8-4-4.6-9.3-4.6-13.7c0-1.7,1.2-2.8,3.1-2.8c3.6,0,3.7,0.1,4.3,5.4
		c1.2,9.4,10.7,15.9,23.3,15.9c14.2,0,22.1-5.8,22.1-16.2c0-5.6-3-9.5-9.1-12.1c-3.4-1.4-6.2-2.2-17.1-4.8
		c-10.3-2.3-13.9-3.6-17.7-6.3c-4.3-2.9-6.7-8-6.7-14c0-13.4,10.2-21.7,27.1-21.7c10.9,0,19,3.5,23.9,10.2c2.1,3,3.9,8,3.9,10.9
		c0,2.2-1,3-3.7,3c-2.9,0-2.9,0-4.2-5.8c-1.5-7.2-9.9-12.2-20.6-12.2C133.6-481.9,126.4-476.3,126.4-467"/>
	<path class="st3" d="M28.8-394.6c0,8.1,3.6,10.7,20.9,14.7c12.5,2.9,16.4,4.1,20.3,6.4c6,3.7,9.2,9.1,9.2,16.1
		c0,14.3-11.1,22.9-29.3,22.9c-11.7,0-21-3.8-26-10.9c-2.8-4-4.6-9.3-4.6-13.7c0-1.7,1.2-2.8,3.1-2.8c3.6,0,3.7,0.1,4.3,5.4
		c1.2,9.4,10.7,15.9,23.3,15.9c14.2,0,22.1-5.8,22.1-16.2c0-5.6-3-9.5-9.1-12.1c-3.4-1.4-6.2-2.2-17.1-4.8
		c-10.3-2.3-13.9-3.6-17.6-6.3c-4.3-2.9-6.7-8-6.7-14c0-13.4,10.2-21.6,27.1-21.6c10.9,0,19,3.5,23.9,10.2c2.1,3,3.9,8,3.9,10.9
		c0,2.2-1,3-3.7,3c-2.9,0-2.9,0-4.2-5.8c-1.5-7.2-9.9-12.2-20.6-12.2C36-409.5,28.8-403.9,28.8-394.6"/>
	<path class="st3" d="M119.6-340.8c0,3.7-0.6,4.5-3.3,4.5c-3.6,0-4.1-0.6-4.1-4.5v-66.7H89.5c-3.7,0-4.5-0.6-4.5-3.3
		c0-2.6,0.8-3.1,4.5-3.1h52.7c3.7,0,4.5,0.6,4.5,3.1c0,2.7-0.8,3.3-4.5,3.3h-22.6V-340.8z"/>
	<path class="st3" d="M166-379.7h38.9c3.7,0,4.5,0.6,4.5,3.1c0,2.7-0.8,3.3-4.5,3.3H166v30.6h42.3c3.7,0,4.5,0.6,4.5,3.1
		c0,2.7-0.8,3.3-4.5,3.3h-45.1c-4.2,0-4.5-0.3-4.5-4.5v-68.6c0-4.2,0.3-4.5,4.5-4.5h44.6c3.7,0,4.5,0.6,4.5,3.1
		c0,2.7-0.8,3.3-4.5,3.3H166V-379.7z"/>
	<path class="st3" d="M272.8-342.7c3.7,0,4.5,0.6,4.5,3.1c0,2.7-0.8,3.3-4.5,3.3H231c-4.2,0-4.5-0.3-4.5-4.5v-68.6
		c0-3.7,0.6-4.5,3.3-4.5c3.6,0,4.1,0.6,4.1,4.5v66.7H272.8z"/>
	<path class="st3" d="M35.4-267.8c3.7,0,4.5,0.6,4.5,3.1c0,2.7-0.8,3.3-4.5,3.3H-6.4c-4.2,0-4.5-0.3-4.5-4.5v-68.6
		c0-3.7,0.6-4.5,3.3-4.5c3.6,0,4.1,0.6,4.1,4.5v66.7H35.4z"/>
	<path class="st3" d="M94.7-292.5c0,11.3-1.2,16.4-5.2,22.1c-5.1,7.2-13.1,10.7-24.9,10.7c-12.5,0-21.5-4.4-26.4-12.9
		c-2.8-5-3.8-10.4-3.8-20.1v-41.8c0-3.7,0.6-4.5,3.3-4.5c3.6,0,4.1,0.6,4.1,4.5v42c0,19.1,6.6,26.7,23.3,26.7
		c16,0,22.3-7.6,22.3-26.8v-41.9c0-3.7,0.6-4.5,3.3-4.5c3.6,0,4.1,0.6,4.1,4.5V-292.5z"/>
	<path class="st3" d="M77.6-240.9c-0.6-0.8-1.5-2.2-4.4-6.9c-3.8-5.9-3.9-6.1-5.8-9.9c0.2,3.1,0.3,4.8,0.3,7.6v5.6l0.1,1.9v1.7v1.9
		v45.6c0,3.6-0.6,4.5-3.3,4.5c-3.4,0-3.8-0.6-3.8-4.5v-68.6c0-4,0.5-4.5,4.1-4.5h0.9c3.5,0,3,0,5,2.7l34.3,49.9
		c3.4,4.9,7.1,10.9,10.1,16.3c-0.2-5.4-0.5-15.2-0.5-20.5v-43.9c0-3.6,0.6-4.5,3.3-4.5c3.4,0,3.8,0.6,3.8,4.5v68.6
		c0,4-0.5,4.5-4.1,4.5h-0.9c-3.5,0-3.1,0-5.1-2.7L77.6-240.9z"/>
	<path class="st3" d="M199.8-203.3c-4.8,10.4-14.6,16.2-27.6,16.2c-21.4,0-36-16.3-36-40.2c0-24.1,15.1-41,36.5-41
		c12.9,0,22.6,5,28.6,14.7c2,3,3.3,6.5,3.3,8.4c0,1.7-1.3,2.7-3.7,2.7c-1.9,0-2.7-0.6-3.3-2.1c-4.1-11.6-12.1-17.2-24.7-17.2
		c-17.7,0-29.3,13.7-29.3,34.6c0,20.4,11.6,33.8,29.3,33.8c16.7,0,26.8-10.8,26.9-28.7h-22.1c-3.6,0-4.5-0.6-4.5-3
		c0-2.4,0.9-3,4.5-3h24c4.2,0,4.5,0.3,4.5,4.5v30.4c0,3.4-0.7,4.5-2.6,4.5c-1.9,0-2.4-0.9-2.8-4.2L199.8-203.3z"/>
</g>
<g>
	<path class="st4" d="M79.3,72.4c1.5,1.9,1.8,2.3,1.8,3.4c0,1.6-1.6,2.7-3.9,2.7c-2,0-2.9-0.4-4-1.8c-0.1-0.2-0.4-0.6-0.7-0.9
		L41.9,37.2l-15,13.6v22.9c0,3.7-0.6,4.6-3.3,4.6c-3.6,0-4.1-0.6-4.1-4.6V4.8c0-3.7,0.6-4.6,3.3-4.6c3.6,0,4.1,0.6,4.1,4.6v37.4
		c3-2.9,4.1-4,5.1-4.9L70.2,2.2c0.5-0.5,0.7-0.7,0.9-0.8c1.1-1.1,1.6-1.3,3.2-1.3c2.1,0,3.6,1.2,3.6,2.7c0,1.1-0.5,1.8-2.2,3.4
		L47.2,32L79.3,72.4z"/>
	<path class="st4" d="M124.1,18.8c-1.3-3.5-3.2-8.8-4.2-11.8c-1.2,3.3-3,8.5-4.2,11.5l-11.5,29.2h31.1L124.1,18.8z M102,53.7
		l-8.3,21.2c-1.3,3.3-1.4,3.4-4.6,3.4c-2,0-3.4-0.9-3.4-2.5c0-0.8,0-0.9,0.8-2.9l28-69.5c1.4-3.4,1.3-3.4,5-3.4h0.9
		c3.7,0,3.7,0,5,3.4l27.6,69.5c0.9,2,0.9,2.1,0.9,2.9c0,1.3-1.4,2.5-2.9,2.5h-0.4c-3.7,0-3.7,0-5-3.5l-8.2-21.1H102z"/>
	<path class="st4" d="M46.7,147.5c3.7,0,4.6,0.6,4.6,3.2c0,2.7-0.8,3.3-4.6,3.3H4.6c-4.2,0-4.6-0.4-4.6-4.6V80.5
		c0-3.7,0.6-4.6,3.3-4.6c3.6,0,4.1,0.6,4.1,4.6v67H46.7z"/>
	<path class="st4" d="M64.8,110.3H104c3.7,0,4.6,0.6,4.6,3.2c0,2.7-0.8,3.3-4.6,3.3H64.8v30.8h42.6c3.7,0,4.6,0.6,4.6,3.2
		c0,2.7-0.8,3.3-4.6,3.3H62c-4.2,0-4.6-0.4-4.6-4.6V80.5c0-4.2,0.3-4.6,4.6-4.6h44.9c3.7,0,4.6,0.6,4.6,3.2c0,2.7-0.8,3.3-4.6,3.3
		H64.8V110.3z"/>
	<path class="st4" d="M142.9,101.7c-0.6-0.8-1.5-2.2-4.4-6.9c-3.9-6-4-6.1-5.8-9.9c0.2,3.2,0.4,4.8,0.4,7.6V98l0.1,1.9v1.8v1.9v45.8
		c0,3.6-0.6,4.6-3.3,4.6c-3.4,0-3.9-0.6-3.9-4.6V80.5c0-4,0.5-4.6,4.1-4.6h0.9c3.5,0,3,0,5,2.7l34.5,50.2c3.4,4.9,7.1,11,10.2,16.4
		c-0.2-5.4-0.5-15.3-0.5-20.6V80.5c0-3.6,0.6-4.6,3.3-4.6c3.4,0,3.9,0.6,3.9,4.6v68.9c0,4-0.5,4.6-4.1,4.6h-0.9
		c-3.5,0-3.2,0-5.1-2.7L142.9,101.7z"/>
	<path class="st4" d="M68.1,223.5h18.6c11,0,16.5-1.9,21.4-7.1c5.7-6.1,8.3-14.5,8.3-26.4c0-20.7-9.8-31.6-28.5-31.6H68.1V223.5z
		 M87.9,151.9c11.2,0,18.5,2.3,24.7,7.8c7.3,6.7,11.2,17.2,11.2,29.7c0,13.8-3.7,24.4-11,31.8c-6.2,6.3-12.9,8.7-24.3,8.7H65.3
		c-4.2,0-4.6-0.4-4.6-4.6v-68.9c0-4.2,0.4-4.6,4.6-4.6H87.9z"/>
	<path class="st4" d="M142,186.3h39.2c3.7,0,4.6,0.6,4.6,3.2c0,2.7-0.8,3.3-4.6,3.3H142v30.8h42.6c3.7,0,4.6,0.6,4.6,3.2
		c0,2.7-0.8,3.3-4.6,3.3h-45.4c-4.2,0-4.6-0.4-4.6-4.6v-68.9c0-4.2,0.4-4.6,4.6-4.6h44.9c3.7,0,4.6,0.6,4.6,3.2
		c0,2.7-0.8,3.3-4.6,3.3H142V186.3z"/>
	<path class="st4" d="M206.6,189.1h22c16.1,0,22.8-4.6,22.8-15.7c0-10.3-6.4-15.1-20.2-15.1h-24.6V189.1z M233.5,151.9
		c16.5,0,25.3,7.4,25.3,21.1c0,9.9-5.5,17-15.2,19.3c5,0.8,7.6,2.2,10.1,5.4c1.8,2.3,2.7,4.7,3.2,8.4c0.2,1.6,0.2,2.1,0.6,6.1
		l0.1,2.2l0.2,2.3c0.5,6.7,0.7,8.2,1.8,10.9c0.1,0.3,0.2,0.7,0.2,0.8c0,0.9-0.7,1.5-1.9,1.5h-1.6c-4.8,0-5.1-0.7-5.6-10.8
		c-0.6-13.1-1.4-16.3-4.8-19.9c-2.8-3-7.6-4.2-16.3-4.2h-22.9v30.3c0,3.7-0.6,4.6-3.3,4.6c-3.6,0-4.1-0.6-4.1-4.6v-68.9
		c0-4.2,0.4-4.6,4.6-4.6H233.5z"/>
</g>
</svg>
