<?xml version="1.0" encoding="utf-8"?>
<!-- Generator: Adobe Illustrator 16.0.4, SVG Export Plug-In . SVG Version: 6.00 Build 0)  -->
<!DOCTYPE svg PUBLIC "-//W3C//DTD SVG 1.1//EN" "http://www.w3.org/Graphics/SVG/1.1/DTD/svg11.dtd">
<svg version="1.1" xmlns="http://www.w3.org/2000/svg" xmlns:xlink="http://www.w3.org/1999/xlink" x="0px" y="0px" width="822px"
	 height="822px" viewBox="0 0 822 822" enable-background="new 0 0 822 822" xml:space="preserve">
<g id="Ebene_3" display="none">
	<rect display="inline" fill="#F4F4F4" width="822" height="822"/>
	<rect display="inline" fill="#F4F4F4" width="822" height="822"/>
	<rect display="inline" fill="#F4F4F4" width="822" height="822"/>
</g>
<g id="Ebene_6" display="none">
	
		<rect x="56" y="60" display="inline" fill="#F4F4F4" stroke="#000000" stroke-width="2" stroke-miterlimit="10" width="706" height="705"/>
</g>
<g id="Kalender" display="none">
	<rect x="37" y="59.381" display="inline" fill="none" width="1164" height="1763"/>
	<text transform="matrix(1 0 0 1 37 239.4692)" display="inline"><tspan x="0" y="0" font-family="'NimbusSansRound-Regular'" font-size="270">KA</tspan><tspan x="0" y="175" font-family="'NimbusSansRound-Regular'" font-size="270" letter-spacing="-31">							</tspan><tspan x="252" y="175" font-family="'NimbusSansRound-Regular'" font-size="270">LEN</tspan><tspan x="0" y="350" font-family="'NimbusSansRound-Regular'" font-size="270">D</tspan><tspan x="0" y="525" font-family="'NimbusSansRound-Regular'" font-size="270" letter-spacing="-31">							</tspan><tspan x="252" y="525" font-family="'NimbusSansRound-Regular'" font-size="270">ER</tspan></text>
</g>
<g id="Räumlichkeiten" display="none">
	<rect x="37" y="60" display="inline" fill="none" width="1164" height="1763"/>
	<text transform="matrix(1 0 0 1 37 240.0879)" display="inline"><tspan x="0" y="0" font-family="'NimbusSansRound-Regular'" font-size="270">RÄUM</tspan><tspan x="0" y="173" font-family="'NimbusSansRound-Regular'" font-size="270" letter-spacing="-31">		</tspan><tspan x="72" y="173" font-family="'NimbusSansRound-Regular'" font-size="270">LICH</tspan><tspan x="0" y="346" font-family="'NimbusSansRound-Regular'" font-size="270" letter-spacing="-31">	</tspan><tspan x="36" y="346" font-family="'NimbusSansRound-Regular'" font-size="270">KEIT</tspan><tspan x="0" y="519" font-family="'NimbusSansRound-Regular'" font-size="270" letter-spacing="-31">									</tspan><tspan x="324" y="519" font-family="'NimbusSansRound-Regular'" font-size="270">EN</tspan></text>
</g>
<g id="Salon">
	<g>
		<path fill="#FFFFFF" d="M85.701,104.816c0,9.72,4.05,17.55,11.07,21.87c7.29,4.59,14.851,7.02,37.531,12.15
			c28.351,6.48,37.261,9.45,46.441,14.58c14.58,8.37,22.14,21.061,22.14,37.531c0,32.94-25.92,53.191-67.771,53.191
			c-27,0-48.331-8.64-59.941-24.301c-6.75-9.18-11.61-22.41-11.61-32.4c0-4.86,2.43-7.02,8.37-7.02c4.05,0,5.67,0.54,7.29,2.7
			c0.81,1.35,0.81,1.35,1.62,9.72c1.35,10.53,8.91,21.601,18.9,27.811c9.99,6.21,21.6,9.18,36.721,9.18
			c31.32,0,49.951-13.77,49.951-36.991c0-13.5-6.75-22.68-21.061-28.62c-7.83-3.24-14.31-5.13-39.69-11.07
			c-24.03-5.4-32.4-8.37-41.041-14.58c-9.99-6.75-15.661-18.63-15.661-32.67c0-30.781,24.031-49.951,62.911-49.951
			c25.11,0,44.551,8.37,55.621,23.761c5.13,7.29,9.18,18.63,9.18,25.65c0,4.86-2.7,6.75-8.64,6.75c-3.78,0-5.4-0.54-6.75-2.43
			c-0.81-1.08-0.81-1.08-2.97-11.07c-1.89-9.72-11.61-19.71-23.49-24.3c-6.48-2.7-15.121-4.05-24.301-4.05
			C102.441,70.255,85.701,83.215,85.701,104.816z"/>
		<path fill="#FFFFFF" d="M494.931,358.387l-19.17,48.871c-2.971,7.56-3.24,7.83-10.801,7.83c-4.59,0-7.56-2.16-7.56-5.94
			c0-1.62,0-1.89,1.89-6.48l64.531-160.382c2.97-7.56,3.51-8.1,11.61-7.83h2.16c8.37-0.27,8.91,0.27,11.609,7.83l63.722,160.382
			c2.16,4.59,2.16,4.86,2.16,6.48c0,3.24-2.971,5.94-6.751,5.94h-0.81c-8.37,0.27-8.91-0.27-11.61-8.1l-18.9-48.601H494.931z
			 M545.962,277.926c-5.4-14.85-7.83-21.061-9.721-27.271c-2.16,6.48-5.4,15.12-9.72,26.46l-26.461,67.501h71.821L545.962,277.926z"
			/>
		<path fill="#FFFFFF" d="M749.809,400.238c8.64,0,10.529,1.35,10.529,7.29c0,6.21-1.89,7.56-10.529,7.56h-97.202
			c-8.91,0.27-10.8-1.62-10.53-10.53V245.525c0-8.91,1.351-10.53,8.641-10.53c7.02,0,8.37,1.62,8.37,10.53v154.712H749.809z"/>
		<path fill="#FFFFFF" d="M453.982,500.446c0,55.891-34.29,93.692-85.051,93.692c-50.491,0-84.511-37.801-84.511-93.962
			c0-56.701,34.021-94.231,85.861-94.231C419.422,405.945,453.982,445.096,453.982,500.446z M301.431,499.636
			c0,47.791,27,79.651,67.771,79.651c40.5,0,67.771-31.59,67.771-78.841c0-46.98-27.54-79.651-66.961-79.651
			C328.431,420.795,301.431,451.846,301.431,499.636z"/>
		<path fill="#FFFFFF" d="M117.291,644.396c-17.01-25.92-19.17-29.43-23.76-38.88c0.54,5.94,0.54,8.371,0.81,12.96v9.72v7.83
			l0.27,12.69v105.842c0,8.91-1.35,10.53-8.101,10.53c-7.02,0-8.37-1.62-8.37-10.53V595.525c-0.27-8.64,1.62-10.53,9.45-10.53h2.16
			c5.4,0,5.67,0,7.02,0.81c1.35,0.54,1.62,0.81,4.59,5.4l79.651,115.832c8.91,12.96,17.82,27.271,23.49,37.801
			c-0.54-9.181-1.08-30.241-1.08-47.521V595.525c0-8.91,1.35-10.53,8.37-10.53c6.75,0,8.1,1.62,8.1,10.53v159.032
			c0.27,8.641-1.62,10.8-9.45,10.53h-2.16c-5.67,0-5.67,0-7.29-0.81c-1.35-0.54-1.35-0.811-4.59-5.4L117.291,644.396z"/>
	</g>
</g>
<g id="Ausstellung" display="none">
	<rect x="56" y="60" display="inline" fill="none" width="1164" height="1763"/>
	<text transform="matrix(1 0 0 1 55.9995 240.0879)" display="inline"><tspan x="0" y="0" font-family="'NimbusSansRound-Regular'" font-size="270">AUS</tspan><tspan x="0" y="169" font-family="'NimbusSansRound-Regular'" font-size="270" letter-spacing="-31">			</tspan><tspan x="108" y="169" font-family="'NimbusSansRound-Regular'" font-size="270">STEL</tspan><tspan x="0" y="338" font-family="'NimbusSansRound-Regular'" font-size="270" letter-spacing="-31">	</tspan><tspan x="36" y="338" font-family="'NimbusSansRound-Regular'" font-size="270">LU</tspan><tspan x="0" y="507" font-family="'NimbusSansRound-Regular'" font-size="270" letter-spacing="-31">								</tspan><tspan x="288" y="507" font-family="'NimbusSansRound-Regular'" font-size="270">NG</tspan></text>
	<rect x="95.606" y="862.077" display="inline" fill="none" width="494.975" height="353.982"/>
	<text transform="matrix(1 0 0 1 95.606 878.085)" display="inline"><tspan x="0" y="0" font-family="'NimbusSansRound-Regular'" font-size="24">Schriftgröße 27</tspan><tspan x="0" y="29" font-family="'NimbusSansRound-Regular'" font-size="24">Zeilenabstand 175</tspan></text>
</g>
</svg>
