<?xml version="1.0" encoding="utf-8"?>
<!-- Generator: Adobe Illustrator 16.0.0, SVG Export Plug-In . SVG Version: 6.00 Build 0)  -->
<!DOCTYPE svg PUBLIC "-//W3C//DTD SVG 1.1//EN" "http://www.w3.org/Graphics/SVG/1.1/DTD/svg11.dtd">
<svg version="1.1" id="Ebene_1" xmlns="http://www.w3.org/2000/svg" xmlns:xlink="http://www.w3.org/1999/xlink" x="0px" y="0px"
	 width="200px" height="137.497px" viewBox="0 0 200 137.497" enable-background="new 0 0 200 137.497" xml:space="preserve">
<g>
	<defs>
		<rect id="SVGID_1_" width="200" height="137.497"/>
	</defs>
	<clipPath id="SVGID_2_">
		<use xlink:href="#SVGID_1_"  overflow="visible"/>
	</clipPath>
	<path clip-path="url(#SVGID_2_)" fill="#231F20" d="M151.498,81.596l-47.919,43.402L48.503,55.902L96.421,12.5L151.498,81.596z
		 M200,129.483V8.432c0-6.987-0.822-8.015-7.194-8.015c-4.727,0-5.753,1.438-5.753,8.015v40.282l-26.307,23.84l-54.695-68.93
		c-0.758-0.926-3.481-3.584-7.84-3.604C93.853,0,90.697,1.982,88.99,3.494l-67,61.656c-1.85,1.644-3.699,3.492-9.042,8.631V8.016
		C12.948,1.028,12.125,0,5.755,0C1.028,0,0,1.438,0,8.016v121.051c0,6.986,0.822,8.014,7.193,8.014c4.727,0,5.755-1.439,5.755-8.014
		V88.786l26.306-23.842c0,0,53.723,67.623,55.137,69.438c0.975,1.104,2.809,3.115,8.412,3.115c5.015,0,7.772-3.014,8.505-3.736
		c1.259-1.166,66.701-61.412,66.701-61.412c1.851-1.645,3.701-3.495,9.044-8.632v65.767c0,6.986,0.821,8.014,7.192,8.014
		C198.972,137.497,200,136.057,200,129.483"/>
</g>
</svg>
