<?xml version="1.0" encoding="utf-8"?>
<!-- Generator: Adobe Illustrator 16.0.0, SVG Export Plug-In . SVG Version: 6.00 Build 0)  -->
<!DOCTYPE svg PUBLIC "-//W3C//DTD SVG 1.1//EN" "http://www.w3.org/Graphics/SVG/1.1/DTD/svg11.dtd">
<svg version="1.1" id="Ebene_1" xmlns="http://www.w3.org/2000/svg" xmlns:xlink="http://www.w3.org/1999/xlink" x="0px" y="0px"
	 width="200px" height="137.497px" viewBox="0 0 200 137.497" enable-background="new 0 0 200 137.497" xml:space="preserve">
<g>
	<path fill="#FFFFFF" d="M137.713,123.036c0-0.936-0.145-1.141-0.848-1.141c-0.613,0-0.76,0.234-0.76,1.141v11.777
		c0,0.963,0.146,1.139,0.936,1.139c0.615,0,0.789-0.232,0.789-1.139v-5.934c0-1.842,0.146-2.777,0.643-3.713
		c0.703-1.373,2.135-2.191,3.889-2.191c1.49,0,2.717,0.674,3.156,1.754c0.264,0.645,0.352,1.287,0.352,2.719v7.365
		c0,0.963,0.145,1.139,0.934,1.139c0.643,0,0.789-0.232,0.789-1.139v-7.893c0-1.84-0.176-2.658-0.73-3.506
		c-0.818-1.256-2.338-1.93-4.268-1.93c-2.191,0-3.594,0.879-4.881,3.041V123.036z M132.553,123.036c0-0.965-0.145-1.141-0.936-1.141
		c-0.643,0-0.787,0.234-0.787,1.141v11.777c0,0.963,0.145,1.139,0.936,1.139c0.643,0,0.787-0.232,0.787-1.139V123.036z
		 M132.553,117.598c0-0.965-0.145-1.139-0.936-1.139c-0.643,0-0.787,0.234-0.787,1.139v0.469c0,0.965,0.145,1.139,0.936,1.139
		c0.643,0,0.787-0.232,0.787-1.139V117.598z M116.539,127.917c0.379-3.246,2.016-4.998,4.615-4.998c2.631,0,4.355,1.928,4.502,4.998
		H116.539z M126.242,129.346h0.291c0.643,0,0.848-0.234,0.848-0.936c0-4.002-2.602-6.926-6.195-6.926c-3.74,0-6.4,3.158-6.4,7.598
		c0,4.385,2.543,7.279,6.4,7.279c2.719,0,4.764-1.314,5.611-3.594c0.146-0.381,0.203-0.674,0.203-0.818
		c0-0.41-0.291-0.645-0.787-0.645c-0.41,0-0.586,0.117-0.732,0.527c-0.994,2.336-2.047,3.098-4.295,3.098
		c-2.895,0-4.59-2.018-4.646-5.584H126.242z M92.723,127.917c0.38-3.246,2.017-4.998,4.618-4.998c2.629,0,4.354,1.928,4.499,4.998
		H92.723z M102.428,129.346h0.289c0.645,0,0.85-0.234,0.85-0.936c0-4.002-2.603-6.926-6.197-6.926c-3.741,0-6.4,3.158-6.4,7.598
		c0,4.385,2.543,7.279,6.4,7.279c2.719,0,4.766-1.314,5.613-3.594c0.145-0.381,0.203-0.674,0.203-0.818
		c0-0.41-0.293-0.645-0.787-0.645c-0.41,0-0.586,0.117-0.732,0.527c-0.993,2.336-2.047,3.098-4.297,3.098
		c-2.894,0-4.588-2.018-4.646-5.584H102.428z M79.698,122.77c-0.03-0.115-0.088-0.203-0.117-0.291
		c-0.176-0.496-0.321-0.584-1.023-0.584c-0.379,0-0.73,0.291-0.73,0.615c0,0.203,0,0.234,0.204,0.729l4.589,11.865
		c0.293,0.789,0.38,0.848,0.937,0.848h0.32h0.293c0.584,0,0.672-0.059,0.964-0.875l4.354-11.838
		c0.205-0.494,0.205-0.525,0.205-0.701c0-0.352-0.321-0.643-0.672-0.643c-0.732,0-0.79,0.057-1.111,0.875l-2.688,7.543
		c-0.438,1.227-0.672,1.959-1.315,3.945c-0.759-2.369-0.993-3.098-1.286-3.828L79.698,122.77z M63.507,134.813
		c0,0.936,0.148,1.139,0.85,1.139c0.613,0,0.759-0.232,0.759-1.139v-11.777c0-0.965-0.146-1.141-0.936-1.141
		c-0.613,0-0.789,0.234-0.789,1.141v6.076c0,3.684-1.578,5.76-4.442,5.76c-1.49,0-2.746-0.73-3.185-1.812
		c-0.264-0.672-0.352-1.344-0.352-2.834v-7.189c0-0.965-0.146-1.141-0.935-1.141c-0.643,0-0.791,0.234-0.791,1.141v7.918
		c0,3.539,1.696,5.408,4.94,5.408c2.135,0,3.771-0.994,4.88-3.039V134.813z M48.025,123.327h1.782c0.876,0,1.14-0.176,1.14-0.73
		c0-0.467-0.292-0.701-0.848-0.701h-0.292h-1.782v-3.188c0-0.963-0.146-1.139-0.937-1.139c-0.642,0-0.788,0.234-0.788,1.139v3.188
		h-1.315c-0.878,0-1.14,0.146-1.14,0.701s0.262,0.73,1.14,0.73h1.315v8.008c0,2.428,0.058,2.982,0.322,3.479
		c0.438,0.906,1.286,1.227,3.067,1.227c0.907,0,1.257-0.203,1.257-0.789c0-0.438-0.292-0.732-0.701-0.732l-0.76,0.031
		c-0.439,0-1.022-0.291-1.228-0.586c-0.176-0.262-0.233-0.758-0.233-1.752V123.327z M41.056,117.598
		c0-0.965-0.147-1.139-0.936-1.139c-0.644,0-0.789,0.234-0.789,1.139v17.215c0,0.963,0.146,1.139,0.936,1.139
		c0.642,0,0.789-0.232,0.789-1.139V117.598z M33.097,134.813c0,0.936,0.146,1.139,0.848,1.139c0.614,0,0.761-0.232,0.761-1.139
		v-11.777c0-0.965-0.146-1.141-0.936-1.141c-0.614,0-0.79,0.234-0.79,1.141v6.076c0,3.684-1.576,5.76-4.44,5.76
		c-1.491,0-2.748-0.73-3.186-1.812c-0.265-0.672-0.352-1.344-0.352-2.834v-7.189c0-0.965-0.146-1.141-0.936-1.141
		c-0.644,0-0.788,0.234-0.788,1.141v7.918c0,3.539,1.694,5.408,4.938,5.408c2.134,0,3.771-0.994,4.881-3.039V134.813z
		 M12.496,124.409l7.13-6.459c0.439-0.408,0.558-0.584,0.558-0.85c0-0.377-0.381-0.67-0.907-0.67c-0.38,0-0.526,0.059-0.788,0.32
		c-0.06,0.031-0.117,0.09-0.233,0.205l-9.528,8.77c-0.264,0.232-0.526,0.494-1.285,1.227v-9.354c0-0.992-0.118-1.139-1.024-1.139
		c-0.672,0-0.817,0.203-0.817,1.139v17.215c0,0.992,0.117,1.139,1.022,1.139c0.672,0,0.819-0.203,0.819-1.139v-5.73l3.74-3.387
		l7.657,9.643c0.087,0.09,0.145,0.176,0.175,0.232c0.263,0.352,0.497,0.439,0.994,0.439c0.555,0,0.965-0.262,0.965-0.672
		c0-0.262-0.059-0.379-0.438-0.846L12.496,124.409z"/>
	<path fill="#FFFFFF" d="M102.297,102.67c-1.257,1.926-2.72,2.834-4.561,2.834c-2.367,0-4.236-1.725-4.236-3.889
		c0-1.811,1.108-3.127,4.003-4.793L102.297,102.67z M97.97,94.836c-0.089-0.117-0.146-0.176-0.205-0.262
		c-0.205-0.236-0.116-0.117-0.759-0.967l-0.175-0.262c-0.731-0.965-1.024-1.666-1.024-2.367c0-1.434,1.17-2.482,2.718-2.482
		c1.521,0,2.66,1.109,2.66,2.568c0,1.375-1.081,2.719-3.127,3.859L97.97,94.836z M104.195,102.436
		c0.525-0.967,1.082-2.895,1.082-3.742c0-0.498-0.264-0.76-0.791-0.76c-0.553,0-0.76,0.205-0.816,0.848
		c-0.059,0.584-0.262,1.461-0.586,2.338l-4.12-5.057c2.72-1.666,3.829-3.156,3.829-5.143c0-2.191-1.783-3.83-4.21-3.83
		c-2.601,0-4.384,1.609-4.384,3.918c0,1.314,0.644,2.572,2.396,4.703c-3.215,1.637-4.851,3.654-4.851,5.936
		c0,3.154,2.396,5.289,5.963,5.289c2.308,0,4.208-1.053,5.552-3.07l1.754,2.105c0.496,0.584,0.469,0.584,1.141,0.584
		c0.41,0,0.76-0.291,0.76-0.643c0-0.232-0.059-0.35-0.469-0.818L104.195,102.436z M79.704,100.127c0.907,0,1.141-0.148,1.141-0.789
		c0-0.615-0.233-0.762-1.141-0.762h-4.207c-0.907,0-1.142,0.146-1.142,0.762c0,0.641,0.234,0.789,1.142,0.789H79.704z
		 M70.308,93.928h1.781c0.875,0,1.14-0.174,1.14-0.729c0-0.469-0.292-0.701-0.848-0.701h-0.292h-1.781v-3.188
		c0-0.963-0.148-1.141-0.938-1.141c-0.642,0-0.788,0.236-0.788,1.141v3.188h-1.315c-0.877,0-1.141,0.146-1.141,0.701
		s0.264,0.729,1.141,0.729h1.315v8.01c0,2.426,0.058,2.98,0.322,3.479c0.438,0.904,1.286,1.227,3.068,1.227
		c0.906,0,1.256-0.205,1.256-0.789c0-0.438-0.292-0.732-0.702-0.732l-0.76,0.029c-0.438,0-1.022-0.291-1.226-0.584
		c-0.178-0.26-0.233-0.758-0.233-1.754V93.928z M54.457,101.967c-0.556,0-0.817,0.234-0.817,0.703c0,2.424,2.425,4.293,5.553,4.293
		c3.448,0,5.699-1.695,5.699-4.293c0-2.223-1.315-3.275-5.231-4.182c-3.391-0.787-4.033-1.197-4.033-2.602
		c0-1.49,1.257-2.365,3.39-2.365c2.104,0,3.245,0.787,3.624,2.482c0.059,0.41,0.293,0.557,0.76,0.557
		c0.555,0,0.848-0.234,0.848-0.674c0-2.248-2.134-3.799-5.203-3.799c-3.125,0-5.113,1.551-5.113,3.975
		c0,1.229,0.584,2.279,1.578,2.807c0.73,0.408,1.285,0.586,3.829,1.197c3.068,0.732,3.856,1.316,3.856,2.777
		c0,1.607-1.577,2.688-3.886,2.688c-2.104,0-3.596-0.936-3.945-2.512C55.13,102.026,55.071,101.967,54.457,101.967 M40.512,93.639
		c0-0.938-0.146-1.141-0.848-1.141c-0.613,0-0.76,0.232-0.76,1.141v11.777c0,0.965,0.146,1.139,0.936,1.139
		c0.612,0,0.788-0.234,0.788-1.139v-5.936c0-1.84,0.146-2.775,0.644-3.711c0.7-1.373,2.134-2.189,3.888-2.189
		c1.49,0,2.718,0.672,3.155,1.752c0.262,0.643,0.351,1.287,0.351,2.719v7.365c0,0.965,0.146,1.139,0.936,1.139
		c0.644,0,0.789-0.234,0.789-1.139v-7.893c0-1.84-0.176-2.66-0.729-3.506c-0.819-1.256-2.34-1.93-4.268-1.93
		c-2.191,0-3.595,0.879-4.881,3.039V93.639z M33.097,105.417c0,0.936,0.146,1.139,0.848,1.139c0.614,0,0.761-0.234,0.761-1.139
		V93.639c0-0.967-0.146-1.141-0.936-1.141c-0.614,0-0.79,0.232-0.79,1.141v6.076c0,3.684-1.576,5.758-4.44,5.758
		c-1.491,0-2.748-0.729-3.186-1.811c-0.265-0.674-0.352-1.344-0.352-2.834v-7.189c0-0.967-0.146-1.141-0.936-1.141
		c-0.644,0-0.788,0.232-0.788,1.141v7.918c0,3.537,1.694,5.406,4.938,5.406c2.134,0,3.771-0.992,4.881-3.039V105.417z
		 M12.496,95.012l7.13-6.461c0.439-0.406,0.558-0.584,0.558-0.848c0-0.377-0.381-0.672-0.907-0.672c-0.38,0-0.526,0.059-0.788,0.322
		c-0.06,0.029-0.117,0.088-0.233,0.205l-9.528,8.768c-0.264,0.234-0.526,0.496-1.285,1.227v-9.352c0-0.992-0.118-1.139-1.024-1.139
		c-0.672,0-0.817,0.203-0.817,1.139v17.215c0,0.992,0.117,1.139,1.022,1.139c0.672,0,0.819-0.203,0.819-1.139v-5.729l3.74-3.391
		l7.657,9.645c0.087,0.09,0.145,0.176,0.175,0.232c0.263,0.352,0.497,0.439,0.994,0.439c0.555,0,0.965-0.262,0.965-0.672
		c0-0.262-0.059-0.379-0.438-0.848L12.496,95.012z"/>
	<path fill="#FFFFFF" d="M147.75,69.122c0.381-3.245,2.018-4.998,4.619-4.998c2.631,0,4.355,1.929,4.5,4.998H147.75z
		 M157.455,70.553h0.291c0.645,0,0.848-0.234,0.848-0.936c0-4.004-2.602-6.926-6.195-6.926c-3.74,0-6.4,3.156-6.4,7.6
		c0,4.383,2.543,7.275,6.4,7.275c2.717,0,4.762-1.314,5.611-3.594c0.145-0.381,0.203-0.674,0.203-0.818
		c0-0.41-0.291-0.645-0.787-0.645c-0.41,0-0.586,0.117-0.732,0.527c-0.992,2.338-2.045,3.098-4.295,3.098
		c-2.893,0-4.59-2.018-4.648-5.582H157.455z M136.105,64.124c2.893,0,4.822,2.339,4.822,5.904c0,3.799-1.812,6.107-4.793,6.107
		c-3.01,0-4.852-2.309-4.852-6.049C131.283,66.403,133.125,64.124,136.105,64.124 M140.986,76.018c0,0.936,0.146,1.141,0.846,1.141
		c0.615,0,0.762-0.234,0.762-1.141V58.805c0-0.965-0.146-1.14-0.936-1.14c-0.613,0-0.789,0.264-0.789,1.14v6.897
		c-0.936-1.988-2.631-3.01-4.939-3.01c-3.887,0-6.371,2.893-6.371,7.365c0,4.676,2.426,7.51,6.461,7.51
		c2.307,0,4.002-1.08,4.967-3.215V76.018z M118.629,58.337c0-0.497-0.205-0.702-0.674-0.702h-0.408
		c-0.469,0-0.672,0.205-0.672,0.702v1.374c0,0.497,0.203,0.701,0.672,0.701h0.408c0.469,0,0.674-0.204,0.674-0.701V58.337z
		 M123.568,58.337c0-0.497-0.205-0.702-0.672-0.702h-0.41c-0.467,0-0.672,0.205-0.672,0.702v1.374c0,0.497,0.205,0.701,0.672,0.701
		h0.41c0.467,0,0.672-0.204,0.672-0.701V58.337z M120.207,64.124c3.01,0,4.938,2.339,4.938,5.963c0,3.74-1.869,6.049-4.906,6.049
		c-3.043,0-4.941-2.338-4.941-6.049C115.297,66.521,117.256,64.124,120.207,64.124 M120.207,62.692
		c-4.033,0-6.662,2.952-6.662,7.424c0,4.559,2.6,7.451,6.693,7.451c4.09,0,6.631-2.834,6.631-7.451
		C126.869,65.585,124.27,62.692,120.207,62.692 M106.645,64.241c0-0.936-0.146-1.14-0.848-1.14c-0.615,0-0.76,0.233-0.76,1.14
		v11.777c0,0.963,0.145,1.141,0.934,1.141c0.615,0,0.791-0.234,0.791-1.141v-4.617c0-2.162,0.115-3.186,0.525-4.091
		c0.555-1.287,2.047-2.484,3.244-2.602c1.488-0.147,1.52-0.147,1.52-0.994c0-0.498-0.264-0.789-0.73-0.789
		c-2.047,0-4.113,1.395-4.676,3.303V64.241z M90.732,69.122c0.381-3.245,2.017-4.998,4.618-4.998c2.632,0,4.355,1.929,4.501,4.998
		H90.732z M100.436,70.553h0.293c0.645,0,0.848-0.234,0.848-0.936c0-4.004-2.602-6.926-6.196-6.926c-3.741,0-6.4,3.156-6.4,7.6
		c0,4.383,2.544,7.275,6.4,7.275c2.72,0,4.764-1.314,5.611-3.594c0.146-0.381,0.204-0.674,0.204-0.818
		c0-0.41-0.292-0.645-0.787-0.645c-0.41,0-0.585,0.117-0.732,0.527c-0.993,2.338-2.045,3.098-4.296,3.098
		c-2.893,0-4.589-2.018-4.647-5.582H100.436z M79.087,64.124c2.835,0,4.618,2.163,4.618,5.611c0,3.537-1.812,5.787-4.705,5.787
		c-2.719,0-4.501-2.25-4.501-5.699C74.499,66.345,76.281,64.124,79.087,64.124 M83.734,76.223c0,3.535-1.403,5.084-4.617,5.084
		c-2.222,0-3.449-0.73-3.946-2.395c-0.117-0.381-0.293-0.498-0.788-0.498c-0.557,0-0.878,0.232-0.878,0.672
		c0,1.988,2.484,3.596,5.553,3.596c2.63,0,4.56-0.877,5.523-2.514c0.614-1.053,0.849-2.191,0.849-4.354V64.241
		c0-0.936-0.146-1.14-0.849-1.14c-0.613,0-0.76,0.233-0.76,1.14v1.49c-1.139-2.104-2.601-3.039-4.821-3.039
		c-3.74,0-6.226,2.922-6.226,7.277c0,4.238,2.396,6.984,6.079,6.984c2.338,0,3.887-0.965,4.881-3.07V76.223z M68.993,64.241
		c0-0.964-0.146-1.14-0.936-1.14c-0.643,0-0.789,0.233-0.789,1.14v11.777c0,0.963,0.146,1.141,0.936,1.141
		c0.644,0,0.789-0.234,0.789-1.141V64.241z M68.993,58.805c0-0.965-0.146-1.14-0.936-1.14c-0.643,0-0.789,0.233-0.789,1.14v0.467
		c0,0.964,0.146,1.139,0.936,1.139c0.644,0,0.789-0.233,0.789-1.139V58.805z M52.858,64.241c0-0.936-0.146-1.14-0.848-1.14
		c-0.614,0-0.76,0.233-0.76,1.14v11.777c0,0.963,0.146,1.141,0.935,1.141c0.614,0,0.788-0.234,0.788-1.141v-5.932
		c0-1.842,0.148-2.776,0.644-3.712c0.702-1.375,2.134-2.193,3.887-2.193c1.492,0,2.719,0.673,3.158,1.753
		c0.262,0.645,0.351,1.287,0.351,2.72v7.363c0,0.963,0.145,1.141,0.935,1.141c0.644,0,0.79-0.234,0.79-1.141v-7.89
		c0-1.842-0.176-2.66-0.732-3.508c-0.816-1.256-2.336-1.928-4.267-1.928c-2.192,0-3.593,0.876-4.88,3.039V64.241z M26.973,69.122
		c0.38-3.245,2.018-4.998,4.617-4.998c2.631,0,4.355,1.929,4.5,4.998H26.973z M36.675,70.553h0.294c0.641,0,0.846-0.234,0.846-0.936
		c0-4.004-2.601-6.926-6.195-6.926c-3.741,0-6.4,3.156-6.4,7.6c0,4.383,2.543,7.275,6.4,7.275c2.719,0,4.764-1.314,5.612-3.594
		c0.145-0.381,0.203-0.674,0.203-0.818c0-0.41-0.292-0.645-0.789-0.645c-0.408,0-0.585,0.117-0.729,0.527
		c-0.993,2.338-2.046,3.098-4.297,3.098c-2.894,0-4.587-2.018-4.646-5.582H36.675z M17.27,76.223
		c0.264,0.848,0.352,0.936,0.937,0.936h0.351h0.32c0.527,0,0.73-0.148,0.849-0.643c0.059-0.117,0.088-0.232,0.088-0.293
		l4.793-17.244c0-0.028,0.029-0.146,0.087-0.292c0.029-0.146,0.059-0.292,0.059-0.38c0-0.41-0.32-0.643-0.818-0.643
		c-0.761,0-0.848,0.059-1.081,0.935l-3.421,12.801c-0.319,1.199-0.64,2.631-0.875,3.83c-0.204-1.023-0.644-2.895-0.936-3.859
		L13.938,58.6c-0.264-0.935-0.264-0.935-1.228-0.935h-0.174c-0.965,0-0.994,0-1.258,0.935L7.714,71.167
		c-0.146,0.469-0.146,0.557-0.615,2.34c-0.202,0.789-0.233,0.992-0.378,1.725c-0.117-0.703-0.177-0.906-0.352-1.756
		c-0.438-1.811-0.438-1.869-0.555-2.279L2.454,58.6c-0.235-0.848-0.322-0.935-1.023-0.935c-0.643,0-0.965,0.205-0.965,0.643
		c0,0.146,0,0.175,0.146,0.671l4.735,17.244c0.233,0.848,0.352,0.936,0.935,0.936h0.351h0.351c0.585,0,0.674-0.088,0.937-0.936
		l3.624-12.859c0.524-1.87,0.73-2.542,1.051-3.945c0.146,0.671,0.176,0.848,0.38,1.694c0.468,1.813,0.497,1.93,0.615,2.31
		L17.27,76.223z"/>
	<path fill="#FFFFFF" d="M163.594,64.241c0-0.936-0.146-1.14-0.848-1.14c-0.613,0-0.76,0.234-0.76,1.14v11.777
		c0,0.963,0.146,1.141,0.936,1.141c0.613,0,0.789-0.234,0.789-1.141v-4.617c0-2.162,0.117-3.187,0.525-4.091
		c0.557-1.287,2.047-2.484,3.244-2.602c1.492-0.147,1.52-0.147,1.52-0.994c0-0.498-0.264-0.789-0.73-0.789
		c-2.047,0-4.111,1.395-4.676,3.303V64.241z"/>
	<path fill="#FFFFFF" d="M42.881,64.241c0-0.936-0.146-1.14-0.848-1.14c-0.613,0-0.76,0.234-0.76,1.14v11.777
		c0,0.963,0.146,1.141,0.936,1.141c0.613,0,0.788-0.234,0.788-1.141v-4.617c0-2.162,0.117-3.187,0.526-4.091
		c0.556-1.287,2.047-2.484,3.244-2.602c1.491-0.147,1.52-0.147,1.52-0.994c0-0.498-0.263-0.789-0.73-0.789
		c-2.044,0-4.112,1.395-4.676,3.303V64.241z"/>
	<path fill="#FFFFFF" d="M70.277,123.03c0-0.936-0.146-1.143-0.848-1.143c-0.614,0-0.761,0.234-0.761,1.143v11.775
		c0,0.965,0.146,1.141,0.936,1.141c0.614,0,0.789-0.234,0.789-1.141v-4.617c0-2.164,0.117-3.188,0.527-4.092
		c0.555-1.287,2.043-2.482,3.242-2.602c1.491-0.146,1.521-0.146,1.521-0.994c0-0.494-0.263-0.789-0.73-0.789
		c-2.046,0-4.112,1.396-4.676,3.305V123.03z"/>
	<path fill="#FFFFFF" d="M108.654,123.03c0-0.936-0.146-1.143-0.848-1.143c-0.613,0-0.76,0.234-0.76,1.143v11.775
		c0,0.965,0.146,1.141,0.934,1.141c0.615,0,0.791-0.234,0.791-1.141v-4.617c0-2.164,0.117-3.188,0.525-4.092
		c0.557-1.287,2.047-2.482,3.242-2.602c1.492-0.146,1.521-0.146,1.521-0.994c0-0.494-0.262-0.789-0.73-0.789
		c-2.047,0-4.111,1.396-4.676,3.305V123.03z"/>
</g>
</svg>
