<?xml version="1.0" encoding="utf-8"?>
<!-- Generator: Adobe Illustrator 16.0.0, SVG Export Plug-In . SVG Version: 6.00 Build 0)  -->
<!DOCTYPE svg PUBLIC "-//W3C//DTD SVG 1.1//EN" "http://www.w3.org/Graphics/SVG/1.1/DTD/svg11.dtd">
<svg version="1.1" id="Ebene_1" xmlns="http://www.w3.org/2000/svg" xmlns:xlink="http://www.w3.org/1999/xlink" x="0px" y="0px"
	 width="200px" height="200px" viewBox="0 0 200 200" enable-background="new 0 0 200 200" xml:space="preserve">
<g>
	<g>
		<path fill-rule="evenodd" clip-rule="evenodd" fill="#3C5154" d="M104.95,5.739c-0.078-0.078-0.151-0.133-0.228-0.207
			c-0.052-0.048-0.104-0.094-0.157-0.141c-0.675-0.627-1.318-1.099-1.935-1.43c-0.078-0.043-0.157-0.082-0.235-0.121
			c-0.179-0.087-0.357-0.171-0.531-0.236c-0.122-0.046-0.246-0.078-0.371-0.114c-0.145-0.042-0.291-0.09-0.434-0.118
			c-0.141-0.028-0.287-0.034-0.429-0.048c-0.131-0.012-0.263-0.033-0.39-0.033c-0.138-0.001-0.28,0.021-0.421,0.034
			c-0.133,0.014-0.268,0.018-0.398,0.042c-0.152,0.028-0.307,0.078-0.462,0.123c-0.114,0.033-0.229,0.062-0.342,0.104
			c-0.182,0.066-0.366,0.153-0.553,0.244c-0.072,0.035-0.143,0.068-0.211,0.106c-0.635,0.335-1.3,0.817-1.998,1.466
			c-0.029,0.025-0.057,0.05-0.085,0.076c-0.087,0.081-0.168,0.143-0.255,0.229c-0.041,0.042-0.07,0.081-0.109,0.121
			c-0.993,0.959-1.943,2.044-2.89,3.003C78.888,22.641,65.359,36.539,51.796,50.405C38.23,64.27,24.653,78.124,11.108,92.004
			c-2.264,2.317-4.844,4.793-4.765,7.646c-0.091,2.853,2.476,5.341,4.729,7.669c13.479,13.944,26.988,27.863,40.489,41.793
			c13.496,13.93,26.958,27.893,40.52,41.759c0.946,0.967,1.894,2.063,2.886,3.029c0.035,0.036,0.061,0.07,0.097,0.108
			c0.079,0.078,0.152,0.133,0.228,0.205c0.052,0.049,0.104,0.096,0.157,0.142c0.675,0.628,1.318,1.1,1.935,1.431
			c0.079,0.043,0.157,0.081,0.236,0.121c0.179,0.087,0.357,0.171,0.531,0.236c0.122,0.046,0.247,0.077,0.371,0.113
			c0.145,0.042,0.292,0.091,0.434,0.118c0.141,0.027,0.287,0.034,0.43,0.047c0.131,0.014,0.263,0.034,0.39,0.034
			c0.138,0.002,0.28-0.021,0.421-0.034c0.133-0.013,0.269-0.018,0.398-0.043c0.152-0.027,0.308-0.077,0.462-0.122
			c0.114-0.032,0.229-0.062,0.343-0.103c0.182-0.068,0.366-0.154,0.553-0.244c0.071-0.035,0.143-0.069,0.211-0.106
			c0.636-0.335,1.301-0.817,1.998-1.466c0.029-0.026,0.056-0.051,0.086-0.077c0.087-0.08,0.168-0.142,0.255-0.228
			c0.04-0.041,0.07-0.082,0.109-0.122c0.993-0.959,1.942-2.043,2.89-3.002c13.626-13.803,27.155-27.7,40.718-41.566
			c13.566-13.864,27.144-27.719,40.688-41.6c2.264-2.317,4.844-4.794,4.766-7.646c0.091-2.853-2.477-5.34-4.73-7.669
			c-13.478-13.944-26.987-27.863-40.488-41.793c-13.496-13.929-26.958-27.892-40.52-41.758c-0.946-0.967-1.895-2.062-2.886-3.028
			C105.013,5.811,104.987,5.776,104.95,5.739z M99.815,180.182c-25.98-26.852-51.987-53.673-77.994-80.494
			C47.956,72.99,74.091,46.292,100.2,19.566c25.981,26.852,51.987,53.673,77.994,80.494
			C152.06,126.758,125.923,153.456,99.815,180.182z"/>
	</g>
</g>
</svg>
