<?xml version="1.0" encoding="utf-8"?>
<!-- Generator: Adobe Illustrator 16.0.0, SVG Export Plug-In . SVG Version: 6.00 Build 0)  -->
<!DOCTYPE svg PUBLIC "-//W3C//DTD SVG 1.1//EN" "http://www.w3.org/Graphics/SVG/1.1/DTD/svg11.dtd">
<svg version="1.1" id="Ebene_1" xmlns="http://www.w3.org/2000/svg" xmlns:xlink="http://www.w3.org/1999/xlink" x="0px" y="0px"
	 width="200px" height="200px" viewBox="0 0 200 200" enable-background="new 0 0 200 200" xml:space="preserve">
<g>
	<g>
		<path fill-rule="evenodd" clip-rule="evenodd" fill="#3C5154" d="M105.028,5.112c-0.078-0.078-0.151-0.133-0.228-0.208
			c-0.053-0.048-0.105-0.094-0.157-0.142c-0.678-0.629-1.323-1.103-1.942-1.435c-0.079-0.043-0.158-0.082-0.236-0.122
			c-0.181-0.087-0.359-0.172-0.534-0.237c-0.122-0.046-0.247-0.078-0.372-0.114c-0.146-0.042-0.293-0.091-0.436-0.118
			c-0.141-0.028-0.287-0.034-0.431-0.048c-0.131-0.013-0.263-0.034-0.391-0.034c-0.139,0-0.282,0.021-0.424,0.034
			c-0.133,0.014-0.269,0.018-0.399,0.043c-0.152,0.028-0.308,0.078-0.464,0.123c-0.114,0.033-0.23,0.063-0.343,0.104
			c-0.182,0.066-0.369,0.154-0.556,0.245c-0.072,0.035-0.143,0.068-0.213,0.106c-0.637,0.336-1.304,0.821-2.005,1.472
			c-0.029,0.025-0.057,0.05-0.085,0.076c-0.087,0.081-0.168,0.144-0.256,0.229c-0.042,0.042-0.07,0.081-0.11,0.122
			c-0.997,0.962-1.951,2.051-2.901,3.015C78.867,22.079,65.286,36.029,51.67,49.95C38.052,63.867,24.424,77.775,10.827,91.709
			c-2.273,2.326-4.863,4.812-4.784,7.675c-0.092,2.864,2.485,5.362,4.747,7.698c13.53,13.998,27.092,27.971,40.645,41.954
			c13.548,13.983,27.062,28,40.675,41.92c0.949,0.971,1.901,2.07,2.896,3.039c0.037,0.037,0.062,0.071,0.098,0.109
			c0.078,0.079,0.152,0.133,0.229,0.207c0.052,0.049,0.104,0.095,0.156,0.142c0.677,0.631,1.324,1.104,1.942,1.436
			c0.079,0.044,0.158,0.081,0.238,0.122c0.18,0.087,0.358,0.172,0.533,0.236c0.122,0.047,0.248,0.079,0.372,0.115
			c0.146,0.042,0.293,0.09,0.436,0.117c0.141,0.027,0.287,0.034,0.431,0.048c0.131,0.014,0.263,0.034,0.392,0.034
			c0.139,0.002,0.282-0.021,0.423-0.034c0.133-0.014,0.269-0.017,0.399-0.043c0.152-0.027,0.309-0.077,0.465-0.122
			c0.113-0.033,0.229-0.062,0.343-0.104c0.183-0.068,0.367-0.155,0.556-0.245c0.072-0.034,0.143-0.069,0.212-0.107
			c0.638-0.336,1.306-0.82,2.006-1.472c0.028-0.025,0.056-0.05,0.085-0.077c0.087-0.08,0.169-0.142,0.256-0.229
			c0.041-0.041,0.07-0.081,0.11-0.122c0.997-0.963,1.949-2.051,2.9-3.014c13.68-13.855,27.26-27.806,40.875-41.727
			c13.618-13.917,27.247-27.825,40.845-41.759c2.271-2.327,4.862-4.812,4.783-7.675c0.092-2.864-2.485-5.361-4.748-7.699
			c-13.529-13.998-27.092-27.97-40.644-41.954c-13.548-13.982-27.062-28-40.676-41.919c-0.949-0.971-1.9-2.07-2.896-3.04
			C105.092,5.184,105.065,5.149,105.028,5.112z"/>
	</g>
</g>
</svg>
